<svg width="40" height="40" viewBox="0 0 40 40" fill="none" xmlns="http://www.w3.org/2000/svg">
<path d="M12.338 14.7059C12.338 13.6013 11.4426 12.7059 10.338 12.7059C9.23346 12.7059 8.33803 13.6013 8.33803 14.7059H12.338ZM8.33803 30.5882C8.33803 31.6928 9.23346 32.5882 10.338 32.5882C11.4426 32.5882 12.338 31.6928 12.338 30.5882H8.33803ZM22.2535 20C22.2535 18.8954 21.3581 18 20.2535 18C19.149 18 18.2535 18.8954 18.2535 20H22.2535ZM18.2535 30.5882C18.2535 31.6928 19.149 32.5882 20.2535 32.5882C21.3581 32.5882 22.2535 31.6928 22.2535 30.5882H18.2535ZM32.169 9.41177C32.169 8.3072 31.2736 7.41177 30.169 7.41177C29.0644 7.41177 28.169 8.3072 28.169 9.41177H32.169ZM28.169 30.5882C28.169 31.6928 29.0644 32.5882 30.169 32.5882C31.2736 32.5882 32.169 31.6928 32.169 30.5882H28.169ZM38 2H40C40 0.895433 39.1046 2.6226e-06 38 2.6226e-06V2ZM38 38L38 40C38.5304 40 39.0391 39.7893 39.4142 39.4142C39.7893 39.0391 40 38.5304 40 38H38ZM2 2L2 0C1.46957 0 0.960859 0.210714 0.585786 0.585786C0.210714 0.960859 0 1.46957 0 2H2ZM2 38H0C0 39.1046 0.89543 40 2 40L2 38ZM8.33803 14.7059V30.5882H12.338V14.7059H8.33803ZM18.2535 20V30.5882H22.2535V20H18.2535ZM28.169 9.41177V30.5882H32.169V9.41177H28.169ZM36 2V38H40V2H36ZM2 4L38 4V2.6226e-06L2 0L2 4ZM38 36L2 36L2 40L38 40L38 36ZM0 2V38H4V2H0Z" fill="#EBE9FF"/>
</svg>
