<svg width="26" height="15" viewBox="0 0 26 15" fill="none" xmlns="http://www.w3.org/2000/svg">
<path d="M13 13L12.2929 13.7071L13 14.4142L13.7071 13.7071L13 13ZM25.7071 1.70711C26.0976 1.31658 26.0976 0.683417 25.7071 0.292893C25.3166 -0.0976311 24.6834 -0.0976311 24.2929 0.292893L25.7071 1.70711ZM1.70711 0.292893C1.31658 -0.0976311 0.683417 -0.0976311 0.292893 0.292893C-0.0976311 0.683417 -0.0976311 1.31658 0.292893 1.70711L1.70711 0.292893ZM13.7071 13.7071L25.7071 1.70711L24.2929 0.292893L12.2929 12.2929L13.7071 13.7071ZM13.7071 12.2929L1.70711 0.292893L0.292893 1.70711L12.2929 13.7071L13.7071 12.2929Z" fill="#EBE9FF"/>
</svg>
