<svg width="1050" height="2609" viewBox="0 0 1050 2609" fill="none" xmlns="http://www.w3.org/2000/svg">
<g clip-path="url(#clip0_325_697)">
<path d="M-144.094 64.8184V84.538V99.3276V130.448V189.606V374.477V559.348V713.407V1507.12C-144.094 1512.97 3.19293 1450.12 173.887 1313.88C344.582 1177.63 368.292 912.143 181.459 787.047C-5.37343 661.951 149.591 541.785 48.0517 438.874C-53.4879 335.963 -79.1074 324.87 -72.5464 218.261C-65.9853 111.653 -144.094 120.28 -144.094 64.8184Z" fill="url(#paint0_linear_325_697)"/>
<path d="M1048 276C731.332 256.019 927.139 69.349 743.137 27.0611C693.263 15.5989 653.811 7.44789 622.337 -0.335869L412.047 -0.335938L434.378 65.82L491.323 234.525C521.998 320.186 608.671 497.934 709.972 523.634C868.411 576.654 965.415 727.027 1050 766V278C1050 276.942 1049.06 276.066 1048 276Z" fill="url(#paint1_linear_325_697)"/>
<path d="M406.931 89.3534C224.775 47.4897 186 0 169 0H90.9999H51.9999H12.9999H0C6.4373e-06 1 0.000267757 59.6202 0.000273347 61C0.000502229 117.5 0 93.5 0 148C0 207.5 139.404 238.757 158.157 294.313C176.888 349.806 181.464 526.843 190.819 554.928C190.843 555 190.84 554.974 190.857 555.048C191.378 557.449 229.471 730.309 379.071 732.396C529.718 734.498 681.35 758.133 983.938 781.443C1005.26 783.086 1034.08 782.736 1050 780V649V519C974.494 427.059 842.467 344.301 711.064 336.351C395.451 317.256 589.087 131.217 406.931 89.3534Z" fill="url(#paint2_linear_325_697)"/>
<path d="M897.706 1720.28C959.065 1867.82 1046 2018.24 977.381 2162.89C871.473 2386.14 439.18 2458.32 421 2609H1050V845L994.781 908.809C941.665 982.578 836.347 1130.12 809.788 1277.66C783.23 1425.2 836.347 1572.74 897.706 1720.28Z" fill="url(#paint3_linear_325_697)"/>
<g filter="url(#filter0_i_325_697)">
<path d="M923.853 2050.07C906.599 2050.07 906.599 2058.49 906.599 2075.85C906.599 2058.49 906.599 2050.07 889.344 2050.07C906.599 2050.07 906.599 2042.06 906.599 2024.7C906.599 2042.06 906.599 2050.07 923.853 2050.07Z" fill="#997AEA"/>
</g>
<g filter="url(#filter1_i_325_697)">
<path d="M124.588 2277.38C98.3973 2277.38 98.3973 2290.15 98.3973 2316.5C98.3973 2290.15 98.3973 2277.38 72.207 2277.38C98.3973 2277.38 98.3973 2265.21 98.3973 2238.86C98.3973 2265.21 98.3973 2277.38 124.588 2277.38Z" fill="#997AEA"/>
</g>
<g filter="url(#filter2_i_325_697)">
<path d="M72.207 1858.29C42.6274 1858.29 42.6274 1872.69 42.6274 1902.39C42.6274 1872.69 42.6275 1858.29 13.0479 1858.29C42.6275 1858.29 42.6274 1844.58 42.6274 1814.88C42.6274 1844.58 42.6274 1858.29 72.207 1858.29Z" fill="#997AEA"/>
</g>
<g filter="url(#filter3_i_325_697)">
<path d="M3.80634 1575.9C-12.216 1575.9 -12.216 1583.71 -12.216 1599.81C-12.216 1583.71 -12.216 1575.9 -28.2383 1575.9C-12.216 1575.9 -12.216 1568.47 -12.216 1552.36C-12.216 1568.47 -12.216 1575.9 3.80634 1575.9Z" fill="#997AEA"/>
</g>
<g filter="url(#filter4_i_325_697)">
<path d="M658.869 1814.95C636.685 1814.95 636.685 1824.28 636.685 1843.52C636.685 1824.28 636.685 1814.95 614.5 1814.95C636.685 1814.95 636.685 1806.07 636.685 1786.83C636.685 1806.07 636.685 1814.95 658.869 1814.95Z" fill="#997AEA"/>
</g>
<g filter="url(#filter5_i_325_697)">
<path d="M408.06 1930.56C390.806 1930.56 390.806 1937.86 390.806 1952.92C390.806 1937.86 390.806 1930.56 373.551 1930.56C390.806 1930.56 390.806 1923.61 390.806 1908.55C390.806 1923.61 390.806 1930.56 408.06 1930.56Z" fill="#997AEA"/>
</g>
<g filter="url(#filter6_i_325_697)">
<path d="M452.428 2410.28C435.173 2410.28 435.173 2418.69 435.173 2436.05C435.173 2418.69 435.173 2410.28 417.918 2410.28C435.173 2410.28 435.173 2402.27 435.173 2384.91C435.173 2402.27 435.173 2410.28 452.428 2410.28Z" fill="#997AEA"/>
</g>
<g filter="url(#filter7_i_325_697)">
<path d="M111.649 2446.1C101.481 2446.1 101.481 2451.07 101.481 2461.32C101.481 2451.07 101.481 2446.1 91.3125 2446.1C101.481 2446.1 101.481 2441.37 101.481 2431.12C101.481 2441.37 101.481 2446.1 111.649 2446.1Z" fill="#997AEA"/>
</g>
<g filter="url(#filter8_i_325_697)">
<path d="M1036.01 1930.52C1017.22 1930.52 1017.22 1939.64 1017.22 1958.47C1017.22 1939.64 1017.22 1930.52 998.422 1930.52C1017.22 1930.52 1017.22 1921.83 1017.22 1903C1017.22 1921.83 1017.22 1930.52 1036.01 1930.52Z" fill="#997AEA"/>
</g>
<path d="M13.0473 2175.99C17.1313 2175.99 20.4422 2172.68 20.4422 2168.6C20.4422 2164.52 17.1313 2161.21 13.0473 2161.21C8.96316 2161.21 5.65234 2164.52 5.65234 2168.6C5.65234 2172.68 8.96316 2175.99 13.0473 2175.99Z" fill="url(#paint4_radial_325_697)"/>
<path d="M676.743 1987.43C683.55 1987.43 689.068 1981.91 689.068 1975.1C689.068 1968.29 683.55 1962.78 676.743 1962.78C669.936 1962.78 664.418 1968.29 664.418 1975.1C664.418 1981.91 669.936 1987.43 676.743 1987.43Z" fill="url(#paint5_radial_325_697)"/>
<path d="M669.5 1645C672.538 1645 675 1642.54 675 1639.5C675 1636.46 672.538 1634 669.5 1634C666.462 1634 664 1636.46 664 1639.5C664 1642.54 666.462 1645 669.5 1645Z" fill="url(#paint6_radial_325_697)"/>
<path d="M182 1718C186.418 1718 190 1714.42 190 1710C190 1705.58 186.418 1702 182 1702C177.582 1702 174 1705.58 174 1710C174 1714.42 177.582 1718 182 1718Z" fill="url(#paint7_radial_325_697)"/>
<path d="M184.673 1833.98C189.948 1833.98 194.225 1829.7 194.225 1824.43C194.225 1819.15 189.948 1814.88 184.673 1814.88C179.398 1814.88 175.121 1819.15 175.121 1824.43C175.121 1829.7 179.398 1833.98 184.673 1833.98Z" fill="url(#paint8_radial_325_697)"/>
<path d="M859.457 1868.5C867.796 1868.5 874.555 1861.74 874.555 1853.4C874.555 1845.06 867.796 1838.3 859.457 1838.3C851.119 1838.3 844.359 1845.06 844.359 1853.4C844.359 1861.74 851.119 1868.5 859.457 1868.5Z" fill="url(#paint9_radial_325_697)"/>
<path d="M1022.76 1838.29C1025.99 1838.29 1028.61 1835.67 1028.61 1832.44C1028.61 1829.21 1025.99 1826.59 1022.76 1826.59C1019.53 1826.59 1016.91 1829.21 1016.91 1832.44C1016.91 1835.67 1019.53 1838.29 1022.76 1838.29Z" fill="url(#paint10_radial_325_697)"/>
<path d="M110.107 2117.76C115.042 2117.76 119.043 2113.76 119.043 2108.82C119.043 2103.89 115.042 2099.88 110.107 2099.88C105.172 2099.88 101.172 2103.89 101.172 2108.82C101.172 2113.76 105.172 2117.76 110.107 2117.76Z" fill="url(#paint11_radial_325_697)"/>
<path d="M105.5 1996C107.985 1996 110 1993.99 110 1991.5C110 1989.01 107.985 1987 105.5 1987C103.015 1987 101 1989.01 101 1991.5C101 1993.99 103.015 1996 105.5 1996Z" fill="url(#paint12_radial_325_697)"/>
<path d="M2.26245 2415.72C4.81503 2415.72 6.88426 2413.65 6.88426 2411.1C6.88426 2408.55 4.81503 2406.48 2.26245 2406.48C-0.290105 2406.48 -2.35938 2408.55 -2.35938 2411.1C-2.35938 2413.65 -0.290105 2415.72 2.26245 2415.72Z" fill="url(#paint13_radial_325_697)"/>
<path d="M263.859 2406.47C271.006 2406.47 276.8 2400.68 276.8 2393.53C276.8 2386.38 271.006 2380.59 263.859 2380.59C256.712 2380.59 250.918 2386.38 250.918 2393.53C250.918 2400.68 256.712 2406.47 263.859 2406.47Z" fill="url(#paint14_radial_325_697)"/>
<g filter="url(#filter9_i_325_697)">
<path d="M338.426 1833.98C364.616 1833.98 364.616 1846.75 364.616 1873.1C364.616 1846.75 364.616 1833.98 390.807 1833.98C364.616 1833.98 364.616 1821.81 364.616 1795.46C364.616 1821.81 364.616 1833.98 338.426 1833.98Z" fill="#997AEA"/>
</g>
<g filter="url(#filter10_i_325_697)">
<path d="M343.973 1327.71C373.552 1327.71 373.552 1342.1 373.552 1371.8C373.552 1342.1 373.552 1327.71 403.132 1327.71C373.552 1327.71 373.552 1314 373.552 1284.3C373.552 1314 373.552 1327.71 343.973 1327.71Z" fill="#997AEA"/>
</g>
<g filter="url(#filter11_i_325_697)">
<path d="M42.6289 1429.85C59.8837 1429.85 59.8837 1437.15 59.8837 1452.21C59.8837 1437.15 59.8837 1429.85 77.1385 1429.85C59.8837 1429.85 59.8837 1422.9 59.8837 1407.84C59.8837 1422.9 59.8837 1429.85 42.6289 1429.85Z" fill="#997AEA"/>
</g>
<g filter="url(#filter12_i_325_697)">
<path d="M608.34 1365.16C622.514 1365.16 622.514 1372.05 622.514 1386.27C622.514 1372.05 622.514 1365.16 636.688 1365.16C622.514 1365.16 622.514 1358.59 622.514 1344.37C622.514 1358.59 622.514 1365.16 608.34 1365.16Z" fill="#997AEA"/>
</g>
<g filter="url(#filter13_i_325_697)">
<path d="M944.811 1685.87C962.066 1685.87 962.066 1694.29 962.066 1711.65C962.066 1694.29 962.066 1685.87 979.32 1685.87C962.066 1685.87 962.066 1677.86 962.066 1660.5C962.066 1677.86 962.066 1685.87 944.811 1685.87Z" fill="#997AEA"/>
</g>
<g filter="url(#filter14_i_325_697)">
<path d="M782.734 1244.64C801.53 1244.64 801.53 1253.76 801.53 1272.59C801.53 1253.76 801.53 1244.64 820.325 1244.64C801.53 1244.64 801.53 1235.95 801.53 1217.13C801.53 1235.95 801.53 1244.64 782.734 1244.64Z" fill="#997AEA"/>
</g>
<g filter="url(#filter15_i_325_697)">
<path d="M551.027 1150.27C577.217 1150.27 577.217 1163.04 577.217 1189.4C577.217 1163.04 577.217 1150.27 603.407 1150.27C577.217 1150.27 577.217 1138.1 577.217 1111.75C577.217 1138.1 577.217 1150.27 551.027 1150.27Z" fill="#997AEA"/>
</g>
<g filter="url(#filter16_i_325_697)">
<path d="M603.406 731.183C632.986 731.183 632.986 745.577 632.986 775.279C632.986 745.577 632.986 731.183 662.565 731.183C632.986 731.183 632.986 717.475 632.986 687.773C632.986 717.475 632.986 731.183 603.406 731.183Z" fill="#997AEA"/>
</g>
<g filter="url(#filter17_i_325_697)">
<path d="M645.312 890.96C662.566 890.96 662.568 898.258 662.568 913.318C662.568 898.258 662.568 890.96 679.823 890.96C662.568 890.96 662.568 884.009 662.568 868.949C662.568 884.009 662.566 890.96 645.312 890.96Z" fill="#997AEA"/>
</g>
<g filter="url(#filter18_i_325_697)">
<path d="M957.75 863.854C971.923 863.854 971.923 870.747 971.923 884.97C971.923 870.747 971.923 863.854 986.097 863.854C971.923 863.854 971.923 857.289 971.923 843.066C971.923 857.289 971.923 863.854 957.75 863.854Z" fill="#997AEA"/>
</g>
<g filter="url(#filter19_i_325_697)">
<path d="M339.039 1092.75C356.294 1092.75 356.294 1101.17 356.294 1118.53C356.294 1101.17 356.294 1092.75 373.549 1092.75C356.294 1092.75 356.294 1084.74 356.294 1067.38C356.294 1084.74 356.294 1092.75 339.039 1092.75Z" fill="#997AEA"/>
</g>
<path d="M464.447 1100.04C462.575 1100.04 461.057 1098.52 461.057 1096.65C461.057 1094.78 462.575 1093.26 464.447 1093.26C466.318 1093.26 467.836 1094.78 467.836 1096.65C467.836 1098.52 466.318 1100.04 464.447 1100.04Z" fill="url(#paint15_radial_325_697)"/>
<path d="M23 1700C29.0751 1700 34 1695.08 34 1689C34 1682.92 29.0751 1678 23 1678C16.9249 1678 12 1682.92 12 1689C12 1695.08 16.9249 1700 23 1700Z" fill="url(#paint16_radial_325_697)"/>
<path d="M227 1353C231.971 1353 236 1348.97 236 1344C236 1339.03 231.971 1335 227 1335C222.029 1335 218 1339.03 218 1344C218 1348.97 222.029 1353 227 1353Z" fill="url(#paint17_radial_325_697)"/>
<path d="M291.5 1248C293.985 1248 296 1245.99 296 1243.5C296 1241.01 293.985 1239 291.5 1239C289.015 1239 287 1241.01 287 1243.5C287 1245.99 289.015 1248 291.5 1248Z" fill="url(#paint18_radial_325_697)"/>
<path d="M578 1315C581.866 1315 585 1311.87 585 1308C585 1304.13 581.866 1301 578 1301C574.134 1301 571 1304.13 571 1308C571 1311.87 574.134 1315 578 1315Z" fill="url(#paint19_radial_325_697)"/>
<path d="M731.5 1328C732.881 1328 734 1326.88 734 1325.5C734 1324.12 732.881 1323 731.5 1323C730.119 1323 729 1324.12 729 1325.5C729 1326.88 730.119 1328 731.5 1328Z" fill="url(#paint20_radial_325_697)"/>
<path d="M794.5 1137C799.747 1137 804 1132.75 804 1127.5C804 1122.25 799.747 1118 794.5 1118C789.253 1118 785 1122.25 785 1127.5C785 1132.75 789.253 1137 794.5 1137Z" fill="url(#paint21_radial_325_697)"/>
<path d="M660 1049C662.209 1049 664 1047.21 664 1045C664 1042.79 662.209 1041 660 1041C657.791 1041 656 1042.79 656 1045C656 1047.21 657.791 1049 660 1049Z" fill="url(#paint22_radial_325_697)"/>
<path d="M896 1034C899.866 1034 903 1030.87 903 1027C903 1023.13 899.866 1020 896 1020C892.134 1020 889 1023.13 889 1027C889 1030.87 892.134 1034 896 1034Z" fill="url(#paint23_radial_325_697)"/>
<path d="M899 905C905.075 905 910 900.075 910 894C910 887.925 905.075 883 899 883C892.925 883 888 887.925 888 894C888 900.075 892.925 905 899 905Z" fill="url(#paint24_radial_325_697)"/>
<path d="M989 733C991.761 733 994 730.761 994 728C994 725.239 991.761 723 989 723C986.239 723 984 725.239 984 728C984 730.761 986.239 733 989 733Z" fill="url(#paint25_radial_325_697)"/>
<path d="M790 647C793.314 647 796 644.314 796 641C796 637.686 793.314 635 790 635C786.686 635 784 637.686 784 641C784 644.314 786.686 647 790 647Z" fill="url(#paint26_radial_325_697)"/>
<path d="M491 706C495.971 706 500 701.971 500 697C500 692.029 495.971 688 491 688C486.029 688 482 692.029 482 697C482 701.971 486.029 706 491 706Z" fill="url(#paint27_radial_325_697)"/>
<path d="M319 647C322.866 647 326 643.866 326 640C326 636.134 322.866 633 319 633C315.134 633 312 636.134 312 640C312 643.866 315.134 647 319 647Z" fill="url(#paint28_radial_325_697)"/>
<path d="M282 465C287.523 465 292 460.523 292 455C292 449.477 287.523 445 282 445C276.477 445 272 449.477 272 455C272 460.523 276.477 465 282 465Z" fill="url(#paint29_radial_325_697)"/>
<path d="M363 279C366.314 279 369 276.314 369 273C369 269.686 366.314 267 363 267C359.686 267 357 269.686 357 273C357 276.314 359.686 279 363 279Z" fill="url(#paint30_radial_325_697)"/>
<path d="M265.5 346C269.09 346 272 343.09 272 339.5C272 335.91 269.09 333 265.5 333C261.91 333 259 335.91 259 339.5C259 343.09 261.91 346 265.5 346Z" fill="url(#paint31_radial_325_697)"/>
<path d="M661.5 404C664.538 404 667 401.538 667 398.5C667 395.462 664.538 393 661.5 393C658.462 393 656 395.462 656 398.5C656 401.538 658.462 404 661.5 404Z" fill="url(#paint32_radial_325_697)"/>
<path d="M796 398C798.209 398 800 396.209 800 394C800 391.791 798.209 390 796 390C793.791 390 792 391.791 792 394C792 396.209 793.791 398 796 398Z" fill="url(#paint33_radial_325_697)"/>
<path d="M779.5 281C782.538 281 785 278.538 785 275.5C785 272.462 782.538 270 779.5 270C776.462 270 774 272.462 774 275.5C774 278.538 776.462 281 779.5 281Z" fill="url(#paint34_radial_325_697)"/>
</g>
<defs>
<filter id="filter0_i_325_697" x="889.344" y="2024.7" width="42.5093" height="66.1504" filterUnits="userSpaceOnUse" color-interpolation-filters="sRGB">
<feFlood flood-opacity="0" result="BackgroundImageFix"/>
<feBlend mode="normal" in="SourceGraphic" in2="BackgroundImageFix" result="shape"/>
<feColorMatrix in="SourceAlpha" type="matrix" values="0 0 0 0 0 0 0 0 0 0 0 0 0 0 0 0 0 0 127 0" result="hardAlpha"/>
<feOffset dx="8" dy="15"/>
<feGaussianBlur stdDeviation="15"/>
<feComposite in2="hardAlpha" operator="arithmetic" k2="-1" k3="1"/>
<feColorMatrix type="matrix" values="0 0 0 0 0 0 0 0 0 0 0 0 0 0 0 0 0 0 0.4 0"/>
<feBlend mode="normal" in2="shape" result="effect1_innerShadow_325_697"/>
</filter>
<filter id="filter1_i_325_697" x="72.207" y="2238.86" width="60.3809" height="92.6396" filterUnits="userSpaceOnUse" color-interpolation-filters="sRGB">
<feFlood flood-opacity="0" result="BackgroundImageFix"/>
<feBlend mode="normal" in="SourceGraphic" in2="BackgroundImageFix" result="shape"/>
<feColorMatrix in="SourceAlpha" type="matrix" values="0 0 0 0 0 0 0 0 0 0 0 0 0 0 0 0 0 0 127 0" result="hardAlpha"/>
<feOffset dx="8" dy="15"/>
<feGaussianBlur stdDeviation="15"/>
<feComposite in2="hardAlpha" operator="arithmetic" k2="-1" k3="1"/>
<feColorMatrix type="matrix" values="0 0 0 0 0 0 0 0 0 0 0 0 0 0 0 0 0 0 0.4 0"/>
<feBlend mode="normal" in2="shape" result="effect1_innerShadow_325_697"/>
</filter>
<filter id="filter2_i_325_697" x="13.0479" y="1814.88" width="67.1592" height="102.51" filterUnits="userSpaceOnUse" color-interpolation-filters="sRGB">
<feFlood flood-opacity="0" result="BackgroundImageFix"/>
<feBlend mode="normal" in="SourceGraphic" in2="BackgroundImageFix" result="shape"/>
<feColorMatrix in="SourceAlpha" type="matrix" values="0 0 0 0 0 0 0 0 0 0 0 0 0 0 0 0 0 0 127 0" result="hardAlpha"/>
<feOffset dx="8" dy="15"/>
<feGaussianBlur stdDeviation="15"/>
<feComposite in2="hardAlpha" operator="arithmetic" k2="-1" k3="1"/>
<feColorMatrix type="matrix" values="0 0 0 0 0 0 0 0 0 0 0 0 0 0 0 0 0 0 0.4 0"/>
<feBlend mode="normal" in2="shape" result="effect1_innerShadow_325_697"/>
</filter>
<filter id="filter3_i_325_697" x="-28.2383" y="1552.36" width="40.0444" height="62.4502" filterUnits="userSpaceOnUse" color-interpolation-filters="sRGB">
<feFlood flood-opacity="0" result="BackgroundImageFix"/>
<feBlend mode="normal" in="SourceGraphic" in2="BackgroundImageFix" result="shape"/>
<feColorMatrix in="SourceAlpha" type="matrix" values="0 0 0 0 0 0 0 0 0 0 0 0 0 0 0 0 0 0 127 0" result="hardAlpha"/>
<feOffset dx="8" dy="15"/>
<feGaussianBlur stdDeviation="15"/>
<feComposite in2="hardAlpha" operator="arithmetic" k2="-1" k3="1"/>
<feColorMatrix type="matrix" values="0 0 0 0 0 0 0 0 0 0 0 0 0 0 0 0 0 0 0.4 0"/>
<feBlend mode="normal" in2="shape" result="effect1_innerShadow_325_697"/>
</filter>
<filter id="filter4_i_325_697" x="614.5" y="1786.83" width="52.3691" height="71.6899" filterUnits="userSpaceOnUse" color-interpolation-filters="sRGB">
<feFlood flood-opacity="0" result="BackgroundImageFix"/>
<feBlend mode="normal" in="SourceGraphic" in2="BackgroundImageFix" result="shape"/>
<feColorMatrix in="SourceAlpha" type="matrix" values="0 0 0 0 0 0 0 0 0 0 0 0 0 0 0 0 0 0 127 0" result="hardAlpha"/>
<feOffset dx="8" dy="15"/>
<feGaussianBlur stdDeviation="15"/>
<feComposite in2="hardAlpha" operator="arithmetic" k2="-1" k3="1"/>
<feColorMatrix type="matrix" values="0 0 0 0 0 0 0 0 0 0 0 0 0 0 0 0 0 0 0.4 0"/>
<feBlend mode="normal" in2="shape" result="effect1_innerShadow_325_697"/>
</filter>
<filter id="filter5_i_325_697" x="373.551" y="1908.55" width="42.5088" height="59.3701" filterUnits="userSpaceOnUse" color-interpolation-filters="sRGB">
<feFlood flood-opacity="0" result="BackgroundImageFix"/>
<feBlend mode="normal" in="SourceGraphic" in2="BackgroundImageFix" result="shape"/>
<feColorMatrix in="SourceAlpha" type="matrix" values="0 0 0 0 0 0 0 0 0 0 0 0 0 0 0 0 0 0 127 0" result="hardAlpha"/>
<feOffset dx="8" dy="15"/>
<feGaussianBlur stdDeviation="15"/>
<feComposite in2="hardAlpha" operator="arithmetic" k2="-1" k3="1"/>
<feColorMatrix type="matrix" values="0 0 0 0 0 0 0 0 0 0 0 0 0 0 0 0 0 0 0.4 0"/>
<feBlend mode="normal" in2="shape" result="effect1_innerShadow_325_697"/>
</filter>
<filter id="filter6_i_325_697" x="417.918" y="2384.91" width="42.5098" height="66.1401" filterUnits="userSpaceOnUse" color-interpolation-filters="sRGB">
<feFlood flood-opacity="0" result="BackgroundImageFix"/>
<feBlend mode="normal" in="SourceGraphic" in2="BackgroundImageFix" result="shape"/>
<feColorMatrix in="SourceAlpha" type="matrix" values="0 0 0 0 0 0 0 0 0 0 0 0 0 0 0 0 0 0 127 0" result="hardAlpha"/>
<feOffset dx="8" dy="15"/>
<feGaussianBlur stdDeviation="15"/>
<feComposite in2="hardAlpha" operator="arithmetic" k2="-1" k3="1"/>
<feColorMatrix type="matrix" values="0 0 0 0 0 0 0 0 0 0 0 0 0 0 0 0 0 0 0.4 0"/>
<feBlend mode="normal" in2="shape" result="effect1_innerShadow_325_697"/>
</filter>
<filter id="filter7_i_325_697" x="91.3125" y="2431.12" width="28.3364" height="45.2002" filterUnits="userSpaceOnUse" color-interpolation-filters="sRGB">
<feFlood flood-opacity="0" result="BackgroundImageFix"/>
<feBlend mode="normal" in="SourceGraphic" in2="BackgroundImageFix" result="shape"/>
<feColorMatrix in="SourceAlpha" type="matrix" values="0 0 0 0 0 0 0 0 0 0 0 0 0 0 0 0 0 0 127 0" result="hardAlpha"/>
<feOffset dx="8" dy="15"/>
<feGaussianBlur stdDeviation="15"/>
<feComposite in2="hardAlpha" operator="arithmetic" k2="-1" k3="1"/>
<feColorMatrix type="matrix" values="0 0 0 0 0 0 0 0 0 0 0 0 0 0 0 0 0 0 0.4 0"/>
<feBlend mode="normal" in2="shape" result="effect1_innerShadow_325_697"/>
</filter>
<filter id="filter8_i_325_697" x="998.422" y="1903" width="45.5879" height="70.4697" filterUnits="userSpaceOnUse" color-interpolation-filters="sRGB">
<feFlood flood-opacity="0" result="BackgroundImageFix"/>
<feBlend mode="normal" in="SourceGraphic" in2="BackgroundImageFix" result="shape"/>
<feColorMatrix in="SourceAlpha" type="matrix" values="0 0 0 0 0 0 0 0 0 0 0 0 0 0 0 0 0 0 127 0" result="hardAlpha"/>
<feOffset dx="8" dy="15"/>
<feGaussianBlur stdDeviation="15"/>
<feComposite in2="hardAlpha" operator="arithmetic" k2="-1" k3="1"/>
<feColorMatrix type="matrix" values="0 0 0 0 0 0 0 0 0 0 0 0 0 0 0 0 0 0 0.4 0"/>
<feBlend mode="normal" in2="shape" result="effect1_innerShadow_325_697"/>
</filter>
<filter id="filter9_i_325_697" x="338.426" y="1795.46" width="60.3809" height="92.6401" filterUnits="userSpaceOnUse" color-interpolation-filters="sRGB">
<feFlood flood-opacity="0" result="BackgroundImageFix"/>
<feBlend mode="normal" in="SourceGraphic" in2="BackgroundImageFix" result="shape"/>
<feColorMatrix in="SourceAlpha" type="matrix" values="0 0 0 0 0 0 0 0 0 0 0 0 0 0 0 0 0 0 127 0" result="hardAlpha"/>
<feOffset dx="8" dy="15"/>
<feGaussianBlur stdDeviation="15"/>
<feComposite in2="hardAlpha" operator="arithmetic" k2="-1" k3="1"/>
<feColorMatrix type="matrix" values="0 0 0 0 0 0 0 0 0 0 0 0 0 0 0 0 0 0 0.4 0"/>
<feBlend mode="normal" in2="shape" result="effect1_innerShadow_325_697"/>
</filter>
<filter id="filter10_i_325_697" x="343.973" y="1284.3" width="67.1592" height="102.5" filterUnits="userSpaceOnUse" color-interpolation-filters="sRGB">
<feFlood flood-opacity="0" result="BackgroundImageFix"/>
<feBlend mode="normal" in="SourceGraphic" in2="BackgroundImageFix" result="shape"/>
<feColorMatrix in="SourceAlpha" type="matrix" values="0 0 0 0 0 0 0 0 0 0 0 0 0 0 0 0 0 0 127 0" result="hardAlpha"/>
<feOffset dx="8" dy="15"/>
<feGaussianBlur stdDeviation="15"/>
<feComposite in2="hardAlpha" operator="arithmetic" k2="-1" k3="1"/>
<feColorMatrix type="matrix" values="0 0 0 0 0 0 0 0 0 0 0 0 0 0 0 0 0 0 0.4 0"/>
<feBlend mode="normal" in2="shape" result="effect1_innerShadow_325_697"/>
</filter>
<filter id="filter11_i_325_697" x="42.6289" y="1407.84" width="42.5098" height="59.3701" filterUnits="userSpaceOnUse" color-interpolation-filters="sRGB">
<feFlood flood-opacity="0" result="BackgroundImageFix"/>
<feBlend mode="normal" in="SourceGraphic" in2="BackgroundImageFix" result="shape"/>
<feColorMatrix in="SourceAlpha" type="matrix" values="0 0 0 0 0 0 0 0 0 0 0 0 0 0 0 0 0 0 127 0" result="hardAlpha"/>
<feOffset dx="8" dy="15"/>
<feGaussianBlur stdDeviation="15"/>
<feComposite in2="hardAlpha" operator="arithmetic" k2="-1" k3="1"/>
<feColorMatrix type="matrix" values="0 0 0 0 0 0 0 0 0 0 0 0 0 0 0 0 0 0 0.4 0"/>
<feBlend mode="normal" in2="shape" result="effect1_innerShadow_325_697"/>
</filter>
<filter id="filter12_i_325_697" x="608.34" y="1344.37" width="36.3481" height="56.8999" filterUnits="userSpaceOnUse" color-interpolation-filters="sRGB">
<feFlood flood-opacity="0" result="BackgroundImageFix"/>
<feBlend mode="normal" in="SourceGraphic" in2="BackgroundImageFix" result="shape"/>
<feColorMatrix in="SourceAlpha" type="matrix" values="0 0 0 0 0 0 0 0 0 0 0 0 0 0 0 0 0 0 127 0" result="hardAlpha"/>
<feOffset dx="8" dy="15"/>
<feGaussianBlur stdDeviation="15"/>
<feComposite in2="hardAlpha" operator="arithmetic" k2="-1" k3="1"/>
<feColorMatrix type="matrix" values="0 0 0 0 0 0 0 0 0 0 0 0 0 0 0 0 0 0 0.4 0"/>
<feBlend mode="normal" in2="shape" result="effect1_innerShadow_325_697"/>
</filter>
<filter id="filter13_i_325_697" x="944.811" y="1660.5" width="42.5088" height="66.1499" filterUnits="userSpaceOnUse" color-interpolation-filters="sRGB">
<feFlood flood-opacity="0" result="BackgroundImageFix"/>
<feBlend mode="normal" in="SourceGraphic" in2="BackgroundImageFix" result="shape"/>
<feColorMatrix in="SourceAlpha" type="matrix" values="0 0 0 0 0 0 0 0 0 0 0 0 0 0 0 0 0 0 127 0" result="hardAlpha"/>
<feOffset dx="8" dy="15"/>
<feGaussianBlur stdDeviation="15"/>
<feComposite in2="hardAlpha" operator="arithmetic" k2="-1" k3="1"/>
<feColorMatrix type="matrix" values="0 0 0 0 0 0 0 0 0 0 0 0 0 0 0 0 0 0 0.4 0"/>
<feBlend mode="normal" in2="shape" result="effect1_innerShadow_325_697"/>
</filter>
<filter id="filter14_i_325_697" x="782.734" y="1217.13" width="45.5908" height="70.46" filterUnits="userSpaceOnUse" color-interpolation-filters="sRGB">
<feFlood flood-opacity="0" result="BackgroundImageFix"/>
<feBlend mode="normal" in="SourceGraphic" in2="BackgroundImageFix" result="shape"/>
<feColorMatrix in="SourceAlpha" type="matrix" values="0 0 0 0 0 0 0 0 0 0 0 0 0 0 0 0 0 0 127 0" result="hardAlpha"/>
<feOffset dx="8" dy="15"/>
<feGaussianBlur stdDeviation="15"/>
<feComposite in2="hardAlpha" operator="arithmetic" k2="-1" k3="1"/>
<feColorMatrix type="matrix" values="0 0 0 0 0 0 0 0 0 0 0 0 0 0 0 0 0 0 0.4 0"/>
<feBlend mode="normal" in2="shape" result="effect1_innerShadow_325_697"/>
</filter>
<filter id="filter15_i_325_697" x="551.027" y="1111.75" width="60.3799" height="92.6499" filterUnits="userSpaceOnUse" color-interpolation-filters="sRGB">
<feFlood flood-opacity="0" result="BackgroundImageFix"/>
<feBlend mode="normal" in="SourceGraphic" in2="BackgroundImageFix" result="shape"/>
<feColorMatrix in="SourceAlpha" type="matrix" values="0 0 0 0 0 0 0 0 0 0 0 0 0 0 0 0 0 0 127 0" result="hardAlpha"/>
<feOffset dx="8" dy="15"/>
<feGaussianBlur stdDeviation="15"/>
<feComposite in2="hardAlpha" operator="arithmetic" k2="-1" k3="1"/>
<feColorMatrix type="matrix" values="0 0 0 0 0 0 0 0 0 0 0 0 0 0 0 0 0 0 0.4 0"/>
<feBlend mode="normal" in2="shape" result="effect1_innerShadow_325_697"/>
</filter>
<filter id="filter16_i_325_697" x="603.406" y="687.773" width="67.1592" height="102.506" filterUnits="userSpaceOnUse" color-interpolation-filters="sRGB">
<feFlood flood-opacity="0" result="BackgroundImageFix"/>
<feBlend mode="normal" in="SourceGraphic" in2="BackgroundImageFix" result="shape"/>
<feColorMatrix in="SourceAlpha" type="matrix" values="0 0 0 0 0 0 0 0 0 0 0 0 0 0 0 0 0 0 127 0" result="hardAlpha"/>
<feOffset dx="8" dy="15"/>
<feGaussianBlur stdDeviation="15"/>
<feComposite in2="hardAlpha" operator="arithmetic" k2="-1" k3="1"/>
<feColorMatrix type="matrix" values="0 0 0 0 0 0 0 0 0 0 0 0 0 0 0 0 0 0 0.4 0"/>
<feBlend mode="normal" in2="shape" result="effect1_innerShadow_325_697"/>
</filter>
<filter id="filter17_i_325_697" x="645.312" y="868.949" width="42.5107" height="59.3691" filterUnits="userSpaceOnUse" color-interpolation-filters="sRGB">
<feFlood flood-opacity="0" result="BackgroundImageFix"/>
<feBlend mode="normal" in="SourceGraphic" in2="BackgroundImageFix" result="shape"/>
<feColorMatrix in="SourceAlpha" type="matrix" values="0 0 0 0 0 0 0 0 0 0 0 0 0 0 0 0 0 0 127 0" result="hardAlpha"/>
<feOffset dx="8" dy="15"/>
<feGaussianBlur stdDeviation="15"/>
<feComposite in2="hardAlpha" operator="arithmetic" k2="-1" k3="1"/>
<feColorMatrix type="matrix" values="0 0 0 0 0 0 0 0 0 0 0 0 0 0 0 0 0 0 0.4 0"/>
<feBlend mode="normal" in2="shape" result="effect1_innerShadow_325_697"/>
</filter>
<filter id="filter18_i_325_697" x="957.75" y="843.066" width="36.3472" height="56.9038" filterUnits="userSpaceOnUse" color-interpolation-filters="sRGB">
<feFlood flood-opacity="0" result="BackgroundImageFix"/>
<feBlend mode="normal" in="SourceGraphic" in2="BackgroundImageFix" result="shape"/>
<feColorMatrix in="SourceAlpha" type="matrix" values="0 0 0 0 0 0 0 0 0 0 0 0 0 0 0 0 0 0 127 0" result="hardAlpha"/>
<feOffset dx="8" dy="15"/>
<feGaussianBlur stdDeviation="15"/>
<feComposite in2="hardAlpha" operator="arithmetic" k2="-1" k3="1"/>
<feColorMatrix type="matrix" values="0 0 0 0 0 0 0 0 0 0 0 0 0 0 0 0 0 0 0.4 0"/>
<feBlend mode="normal" in2="shape" result="effect1_innerShadow_325_697"/>
</filter>
<filter id="filter19_i_325_697" x="339.039" y="1067.38" width="42.5098" height="66.1499" filterUnits="userSpaceOnUse" color-interpolation-filters="sRGB">
<feFlood flood-opacity="0" result="BackgroundImageFix"/>
<feBlend mode="normal" in="SourceGraphic" in2="BackgroundImageFix" result="shape"/>
<feColorMatrix in="SourceAlpha" type="matrix" values="0 0 0 0 0 0 0 0 0 0 0 0 0 0 0 0 0 0 127 0" result="hardAlpha"/>
<feOffset dx="8" dy="15"/>
<feGaussianBlur stdDeviation="15"/>
<feComposite in2="hardAlpha" operator="arithmetic" k2="-1" k3="1"/>
<feColorMatrix type="matrix" values="0 0 0 0 0 0 0 0 0 0 0 0 0 0 0 0 0 0 0.4 0"/>
<feBlend mode="normal" in2="shape" result="effect1_innerShadow_325_697"/>
</filter>
<linearGradient id="paint0_linear_325_697" x1="263.715" y1="675.778" x2="-144.094" y2="675.778" gradientUnits="userSpaceOnUse">
<stop stop-color="#4E1AD2"/>
<stop offset="1" stop-color="#501CD5" stop-opacity="0"/>
</linearGradient>
<linearGradient id="paint1_linear_325_697" x1="1248.22" y1="84.4393" x2="870.738" y2="459.545" gradientUnits="userSpaceOnUse">
<stop stop-color="#4E1AD2"/>
<stop offset="1" stop-color="#10032E" stop-opacity="0.17"/>
</linearGradient>
<linearGradient id="paint2_linear_325_697" x1="856.684" y1="117.133" x2="640.999" y2="497.047" gradientUnits="userSpaceOnUse">
<stop stop-color="#4E1AD2"/>
<stop offset="1" stop-color="#10032E" stop-opacity="0.17"/>
</linearGradient>
<linearGradient id="paint3_linear_325_697" x1="420.342" y1="1753.76" x2="1100.1" y2="1753.76" gradientUnits="userSpaceOnUse">
<stop stop-color="#4A17CD"/>
<stop offset="1" stop-color="#501CD5" stop-opacity="0"/>
</linearGradient>
<radialGradient id="paint4_radial_325_697" cx="0" cy="0" r="1" gradientUnits="userSpaceOnUse" gradientTransform="translate(13.0473 2168.6) rotate(90) scale(7.39492)">
<stop stop-color="#501CD5" stop-opacity="0.5"/>
<stop offset="1" stop-color="#997AEA" stop-opacity="0"/>
</radialGradient>
<radialGradient id="paint5_radial_325_697" cx="0" cy="0" r="1" gradientUnits="userSpaceOnUse" gradientTransform="translate(676.743 1975.1) rotate(90) scale(12.3249)">
<stop stop-color="#501CD5" stop-opacity="0.5"/>
<stop offset="1" stop-color="#997AEA" stop-opacity="0"/>
</radialGradient>
<radialGradient id="paint6_radial_325_697" cx="0" cy="0" r="1" gradientUnits="userSpaceOnUse" gradientTransform="translate(669.5 1639.5) rotate(90) scale(5.5)">
<stop stop-color="#501CD5" stop-opacity="0.5"/>
<stop offset="1" stop-color="#997AEA" stop-opacity="0"/>
</radialGradient>
<radialGradient id="paint7_radial_325_697" cx="0" cy="0" r="1" gradientUnits="userSpaceOnUse" gradientTransform="translate(182 1710) rotate(90) scale(8)">
<stop stop-color="#501CD5" stop-opacity="0.5"/>
<stop offset="1" stop-color="#997AEA" stop-opacity="0"/>
</radialGradient>
<radialGradient id="paint8_radial_325_697" cx="0" cy="0" r="1" gradientUnits="userSpaceOnUse" gradientTransform="translate(184.673 1824.43) rotate(90) scale(9.55174)">
<stop stop-color="#501CD5" stop-opacity="0.5"/>
<stop offset="1" stop-color="#997AEA" stop-opacity="0"/>
</radialGradient>
<radialGradient id="paint9_radial_325_697" cx="0" cy="0" r="1" gradientUnits="userSpaceOnUse" gradientTransform="translate(859.457 1853.4) rotate(90) scale(15.0979)">
<stop stop-color="#501CD5" stop-opacity="0.5"/>
<stop offset="1" stop-color="#997AEA" stop-opacity="0"/>
</radialGradient>
<radialGradient id="paint10_radial_325_697" cx="0" cy="0" r="1" gradientUnits="userSpaceOnUse" gradientTransform="translate(1022.76 1832.44) rotate(90) scale(5.85439)">
<stop stop-color="#501CD5" stop-opacity="0.5"/>
<stop offset="1" stop-color="#997AEA" stop-opacity="0"/>
</radialGradient>
<radialGradient id="paint11_radial_325_697" cx="0" cy="0" r="1" gradientUnits="userSpaceOnUse" gradientTransform="translate(110.107 2108.82) rotate(90) scale(8.93567)">
<stop stop-color="#501CD5" stop-opacity="0.5"/>
<stop offset="1" stop-color="#997AEA" stop-opacity="0"/>
</radialGradient>
<radialGradient id="paint12_radial_325_697" cx="0" cy="0" r="1" gradientUnits="userSpaceOnUse" gradientTransform="translate(105.5 1991.5) rotate(90) scale(4.5)">
<stop stop-color="#501CD5" stop-opacity="0.5"/>
<stop offset="1" stop-color="#997AEA" stop-opacity="0"/>
</radialGradient>
<radialGradient id="paint13_radial_325_697" cx="0" cy="0" r="1" gradientUnits="userSpaceOnUse" gradientTransform="translate(2.26244 2411.1) rotate(90) scale(4.62183)">
<stop stop-color="#501CD5" stop-opacity="0.5"/>
<stop offset="1" stop-color="#997AEA" stop-opacity="0"/>
</radialGradient>
<radialGradient id="paint14_radial_325_697" cx="0" cy="0" r="1" gradientUnits="userSpaceOnUse" gradientTransform="translate(263.859 2393.53) rotate(90) scale(12.941)">
<stop stop-color="#501CD5" stop-opacity="0.5"/>
<stop offset="1" stop-color="#997AEA" stop-opacity="0"/>
</radialGradient>
<radialGradient id="paint15_radial_325_697" cx="0" cy="0" r="1" gradientUnits="userSpaceOnUse" gradientTransform="translate(461.057 1100.04) rotate(90) scale(3.38935)">
<stop stop-color="#501CD5" stop-opacity="0.5"/>
<stop offset="1" stop-color="#997AEA" stop-opacity="0"/>
</radialGradient>
<radialGradient id="paint16_radial_325_697" cx="0" cy="0" r="1" gradientUnits="userSpaceOnUse" gradientTransform="translate(23 1689) rotate(90) scale(11)">
<stop stop-color="#501CD5" stop-opacity="0.5"/>
<stop offset="1" stop-color="#997AEA" stop-opacity="0"/>
</radialGradient>
<radialGradient id="paint17_radial_325_697" cx="0" cy="0" r="1" gradientUnits="userSpaceOnUse" gradientTransform="translate(227 1344) rotate(90) scale(9)">
<stop stop-color="#501CD5" stop-opacity="0.5"/>
<stop offset="1" stop-color="#997AEA" stop-opacity="0"/>
</radialGradient>
<radialGradient id="paint18_radial_325_697" cx="0" cy="0" r="1" gradientUnits="userSpaceOnUse" gradientTransform="translate(291.5 1243.5) rotate(90) scale(4.5)">
<stop stop-color="#501CD5" stop-opacity="0.5"/>
<stop offset="1" stop-color="#997AEA" stop-opacity="0"/>
</radialGradient>
<radialGradient id="paint19_radial_325_697" cx="0" cy="0" r="1" gradientUnits="userSpaceOnUse" gradientTransform="translate(578 1308) rotate(90) scale(7)">
<stop stop-color="#501CD5" stop-opacity="0.5"/>
<stop offset="1" stop-color="#997AEA" stop-opacity="0"/>
</radialGradient>
<radialGradient id="paint20_radial_325_697" cx="0" cy="0" r="1" gradientUnits="userSpaceOnUse" gradientTransform="translate(731.5 1325.5) rotate(90) scale(2.5)">
<stop stop-color="#501CD5" stop-opacity="0.5"/>
<stop offset="1" stop-color="#997AEA" stop-opacity="0"/>
</radialGradient>
<radialGradient id="paint21_radial_325_697" cx="0" cy="0" r="1" gradientUnits="userSpaceOnUse" gradientTransform="translate(794.5 1127.5) rotate(90) scale(9.5)">
<stop stop-color="#501CD5" stop-opacity="0.5"/>
<stop offset="1" stop-color="#997AEA" stop-opacity="0"/>
</radialGradient>
<radialGradient id="paint22_radial_325_697" cx="0" cy="0" r="1" gradientUnits="userSpaceOnUse" gradientTransform="translate(660 1045) rotate(90) scale(4)">
<stop stop-color="#501CD5" stop-opacity="0.5"/>
<stop offset="1" stop-color="#997AEA" stop-opacity="0"/>
</radialGradient>
<radialGradient id="paint23_radial_325_697" cx="0" cy="0" r="1" gradientUnits="userSpaceOnUse" gradientTransform="translate(896 1027) rotate(90) scale(7)">
<stop stop-color="#501CD5" stop-opacity="0.5"/>
<stop offset="1" stop-color="#997AEA" stop-opacity="0"/>
</radialGradient>
<radialGradient id="paint24_radial_325_697" cx="0" cy="0" r="1" gradientUnits="userSpaceOnUse" gradientTransform="translate(899 894) rotate(90) scale(11)">
<stop stop-color="#501CD5" stop-opacity="0.5"/>
<stop offset="1" stop-color="#997AEA" stop-opacity="0"/>
</radialGradient>
<radialGradient id="paint25_radial_325_697" cx="0" cy="0" r="1" gradientUnits="userSpaceOnUse" gradientTransform="translate(989 728) rotate(90) scale(5)">
<stop stop-color="#501CD5" stop-opacity="0.5"/>
<stop offset="1" stop-color="#997AEA" stop-opacity="0"/>
</radialGradient>
<radialGradient id="paint26_radial_325_697" cx="0" cy="0" r="1" gradientUnits="userSpaceOnUse" gradientTransform="translate(790 641) rotate(90) scale(6)">
<stop stop-color="#501CD5" stop-opacity="0.5"/>
<stop offset="1" stop-color="#997AEA" stop-opacity="0"/>
</radialGradient>
<radialGradient id="paint27_radial_325_697" cx="0" cy="0" r="1" gradientUnits="userSpaceOnUse" gradientTransform="translate(491 697) rotate(90) scale(9)">
<stop stop-color="#501CD5" stop-opacity="0.5"/>
<stop offset="1" stop-color="#997AEA" stop-opacity="0"/>
</radialGradient>
<radialGradient id="paint28_radial_325_697" cx="0" cy="0" r="1" gradientUnits="userSpaceOnUse" gradientTransform="translate(319 640) rotate(90) scale(7)">
<stop stop-color="#501CD5" stop-opacity="0.5"/>
<stop offset="1" stop-color="#997AEA" stop-opacity="0"/>
</radialGradient>
<radialGradient id="paint29_radial_325_697" cx="0" cy="0" r="1" gradientUnits="userSpaceOnUse" gradientTransform="translate(282 455) rotate(90) scale(10)">
<stop stop-color="#501CD5" stop-opacity="0.5"/>
<stop offset="1" stop-color="#997AEA" stop-opacity="0"/>
</radialGradient>
<radialGradient id="paint30_radial_325_697" cx="0" cy="0" r="1" gradientUnits="userSpaceOnUse" gradientTransform="translate(363 273) rotate(90) scale(6)">
<stop stop-color="#501CD5" stop-opacity="0.5"/>
<stop offset="1" stop-color="#997AEA" stop-opacity="0"/>
</radialGradient>
<radialGradient id="paint31_radial_325_697" cx="0" cy="0" r="1" gradientUnits="userSpaceOnUse" gradientTransform="translate(265.5 339.5) rotate(90) scale(6.5)">
<stop stop-color="#501CD5" stop-opacity="0.5"/>
<stop offset="1" stop-color="#997AEA" stop-opacity="0"/>
</radialGradient>
<radialGradient id="paint32_radial_325_697" cx="0" cy="0" r="1" gradientUnits="userSpaceOnUse" gradientTransform="translate(661.5 398.5) rotate(90) scale(5.5)">
<stop stop-color="#501CD5" stop-opacity="0.5"/>
<stop offset="1" stop-color="#997AEA" stop-opacity="0"/>
</radialGradient>
<radialGradient id="paint33_radial_325_697" cx="0" cy="0" r="1" gradientUnits="userSpaceOnUse" gradientTransform="translate(796 394) rotate(90) scale(4)">
<stop stop-color="#501CD5" stop-opacity="0.5"/>
<stop offset="1" stop-color="#997AEA" stop-opacity="0"/>
</radialGradient>
<radialGradient id="paint34_radial_325_697" cx="0" cy="0" r="1" gradientUnits="userSpaceOnUse" gradientTransform="translate(779.5 275.5) rotate(90) scale(5.5)">
<stop stop-color="#501CD5" stop-opacity="0.5"/>
<stop offset="1" stop-color="#997AEA" stop-opacity="0"/>
</radialGradient>
<clipPath id="clip0_325_697">
<rect width="1050" height="2609" fill="white"/>
</clipPath>
</defs>
</svg>
