<svg width="1920" height="4220" viewBox="0 0 1920 4220" fill="none" xmlns="http://www.w3.org/2000/svg">
<path d="M1.00012 96.6297V128.629V152.629V203.128V299.127L1.00012 599.124L1.00012 899.121V1149.12L1.00012 2437.1C1.00012 2446.6 240.007 2344.61 517 2123.52C793.993 1902.43 832.469 1471.61 529.288 1268.62C226.106 1065.62 477.574 870.621 312.801 703.623C148.029 536.625 106.456 518.625 117.103 345.627C127.749 172.629 1.00012 186.629 1.00012 96.6297Z" fill="url(#paint0_linear_63_18)"/>
<path d="M1920.03 443.399C1410.67 411.76 1732.38 111.288 1437.17 43.4416C1357.21 25.066 1293.96 11.9988 1243.51 -0.479746L906.382 -0.479852L942.182 105.578L1033.47 376.037C1082.65 513.365 1221.6 798.32 1384 839.52C1638 924.52 1786.39 1165.68 1922 1228.16L1922 445.403C1922 444.345 1921.08 443.465 1920.03 443.399Z" fill="url(#paint1_linear_63_18)"/>
<path d="M895.168 136.442C599.577 68.5081 638.5 14.5203 508.5 -0.479578L255.25 -0.479575L4.78598 -0.479577C3.41761 -0.479555 2.46018 0.882196 2.91429 2.17295C33.977 90.4514 111.368 129.757 141.499 219.02C171.929 309.173 461.042 378.884 491.473 469.037C521.882 559.127 529.301 846.623 544.495 892.006C544.519 892.079 544.514 892.042 544.53 892.117C545.052 894.53 606.545 1176.54 849.959 1179.93C1094.42 1183.34 1340.48 1221.69 1831.5 1259.52C1866.1 1262.19 1896.17 1261.04 1922 1256.6L1922 1044.93L1922 833.265C1799.48 684.069 1601.93 550.155 1388.7 537.254C876.539 506.267 1190.76 204.376 895.168 136.442Z" fill="url(#paint2_linear_63_18)"/>
<path d="M1691.57 2783.01C1791.14 3022.42 1932.22 3266.52 1820.86 3501.25C1649 3863.52 947 3974.99 917.5 4219.5L1922 4219.52V1363.18L1849.1 1466.2C1762.9 1585.91 1592 1825.33 1548.9 2064.75C1505.81 2304.16 1592 2543.59 1691.57 2783.01Z" fill="url(#paint3_linear_63_18)"/>
<g filter="url(#filter0_d_63_18)">
<path d="M1620 3528.17C1592 3528.17 1592 3541.83 1592 3570C1592 3541.83 1592 3528.17 1564 3528.17C1592 3528.17 1592 3515.17 1592 3487C1592 3515.17 1592 3528.17 1620 3528.17Z" fill="#997AEA"/>
</g>
<g filter="url(#filter1_d_63_18)">
<path d="M323 3897.03C280.5 3897.03 280.5 3917.75 280.5 3960.52C280.5 3917.75 280.5 3897.03 238 3897.03C280.5 3897.03 280.5 3877.29 280.5 3834.52C280.5 3877.29 280.5 3897.03 323 3897.03Z" fill="#997AEA"/>
</g>
<g filter="url(#filter2_d_63_18)">
<path d="M238 3216.96C190 3216.96 190 3240.32 190 3288.52C190 3240.32 190 3216.96 142 3216.96C190 3216.96 190 3194.72 190 3146.52C190 3194.72 190 3216.96 238 3216.96Z" fill="#997AEA"/>
</g>
<g filter="url(#filter3_d_63_18)">
<path d="M127 2758.72C101 2758.72 101 2771.38 101 2797.52C101 2771.38 101 2758.72 75 2758.72C101 2758.72 101 2746.66 101 2720.52C101 2746.66 101 2758.72 127 2758.72Z" fill="#997AEA"/>
</g>
<g filter="url(#filter4_d_63_18)">
<path d="M1190 3146.64C1154 3146.64 1154 3161.77 1154 3193C1154 3161.77 1154 3146.64 1118 3146.64C1154 3146.64 1154 3132.23 1154 3101C1154 3132.23 1154 3146.64 1190 3146.64Z" fill="#997AEA"/>
</g>
<g filter="url(#filter5_d_63_18)">
<path d="M783 3334.24C755 3334.24 755 3346.08 755 3370.52C755 3346.08 755 3334.24 727 3334.24C755 3334.24 755 3322.96 755 3298.52C755 3322.96 755 3334.24 783 3334.24Z" fill="#997AEA"/>
</g>
<g filter="url(#filter6_d_63_18)">
<path d="M855 4112.7C827 4112.7 827 4126.35 827 4154.52C827 4126.35 827 4112.7 799 4112.7C827 4112.7 827 4099.69 827 4071.52C827 4099.69 827 4112.7 855 4112.7Z" fill="#997AEA"/>
</g>
<g filter="url(#filter7_d_63_18)">
<path d="M302 4170.83C285.5 4170.83 285.5 4178.89 285.5 4195.52C285.5 4178.89 285.5 4170.83 269 4170.83C285.5 4170.83 285.5 4163.15 285.5 4146.52C285.5 4163.15 285.5 4170.83 302 4170.83Z" fill="#997AEA"/>
</g>
<g filter="url(#filter8_d_63_18)">
<path d="M105 3563.87C92 3563.87 92 3570.28 92 3583.52C92 3570.28 92 3563.87 79 3563.87C92 3563.87 92 3557.76 92 3544.52C92 3557.76 92 3563.87 105 3563.87Z" fill="#997AEA"/>
</g>
<g filter="url(#filter9_d_63_18)">
<path d="M1802 3334.17C1771.5 3334.17 1771.5 3348.97 1771.5 3379.52C1771.5 3348.97 1771.5 3334.17 1741 3334.17C1771.5 3334.17 1771.5 3320.07 1771.5 3289.52C1771.5 3320.07 1771.5 3334.17 1802 3334.17Z" fill="#997AEA"/>
</g>
<circle cx="142" cy="3720.52" r="12" fill="url(#paint4_radial_63_18)"/>
<circle cx="1219" cy="3406.52" r="20" fill="url(#paint5_radial_63_18)"/>
<circle cx="420.5" cy="3162.02" r="15.5" fill="url(#paint6_radial_63_18)"/>
<circle cx="1515.5" cy="3209.02" r="24.5" fill="url(#paint7_radial_63_18)"/>
<circle cx="1780.5" cy="3175.02" r="9.5" fill="url(#paint8_radial_63_18)"/>
<circle cx="299.5" cy="3623.5" r="14.5" fill="url(#paint9_radial_63_18)"/>
<circle cx="124.5" cy="4114.02" r="7.5" fill="url(#paint10_radial_63_18)"/>
<circle cx="549" cy="4085.52" r="21" fill="url(#paint11_radial_63_18)"/>
<g filter="url(#filter10_d_63_18)">
<path d="M670 3177.51C712.5 3177.51 712.5 3198.23 712.5 3241C712.5 3198.23 712.5 3177.51 755 3177.51C712.5 3177.51 712.5 3157.77 712.5 3115C712.5 3157.77 712.5 3177.51 670 3177.51Z" fill="#997AEA"/>
</g>
<g filter="url(#filter11_d_63_18)">
<path d="M679 2355.96C727 2355.96 727 2379.32 727 2427.52C727 2379.32 727 2355.96 775 2355.96C727 2355.96 727 2333.72 727 2285.52C727 2333.72 727 2355.96 679 2355.96Z" fill="#997AEA"/>
</g>
<g filter="url(#filter12_d_63_18)">
<path d="M190 2521.72C218 2521.72 218 2533.56 218 2558C218 2533.56 218 2521.72 246 2521.72C218 2521.72 218 2510.44 218 2486C218 2510.44 218 2521.72 190 2521.72Z" fill="#997AEA"/>
</g>
<g filter="url(#filter13_d_63_18)">
<path d="M1108 2416.73C1131 2416.73 1131 2427.92 1131 2451C1131 2427.92 1131 2416.73 1154 2416.73C1131 2416.73 1131 2406.08 1131 2383C1131 2406.08 1131 2416.73 1108 2416.73Z" fill="#997AEA"/>
</g>
<g filter="url(#filter14_d_63_18)">
<path d="M1654 2937.17C1682 2937.17 1682 2950.83 1682 2979C1682 2950.83 1682 2937.17 1710 2937.17C1682 2937.17 1682 2924.17 1682 2896C1682 2924.17 1682 2937.17 1654 2937.17Z" fill="#997AEA"/>
</g>
<g filter="url(#filter15_d_63_18)">
<path d="M1391 2221.17C1421.5 2221.17 1421.5 2235.97 1421.5 2266.52C1421.5 2235.97 1421.5 2221.17 1452 2221.17C1421.5 2221.17 1421.5 2207.07 1421.5 2176.52C1421.5 2207.07 1421.5 2221.17 1391 2221.17Z" fill="#997AEA"/>
</g>
<circle r="10" transform="matrix(-1 0 0 1 1310 2350.52)" fill="url(#paint12_radial_63_18)"/>
<circle r="7.5" transform="matrix(-1 0 0 1 1615.5 2629.5)" fill="url(#paint13_radial_63_18)"/>
<circle r="12" transform="matrix(-1 0 0 1 416 2977)" fill="url(#paint14_radial_63_18)"/>
<circle r="15.5" transform="matrix(-1 0 0 1 495.5 2382.5)" fill="url(#paint15_radial_63_18)"/>
<circle r="9" transform="matrix(-1 0 0 1 1208 2863)" fill="url(#paint16_radial_63_18)"/>
<circle r="18.5" transform="matrix(-1 0 0 1 162.5 2938.02)" fill="url(#paint17_radial_63_18)"/>
<g filter="url(#filter16_d_63_18)">
<path d="M1015 2068.03C1057.5 2068.03 1057.5 2088.75 1057.5 2131.52C1057.5 2088.75 1057.5 2068.03 1100 2068.03C1057.5 2068.03 1057.5 2048.29 1057.5 2005.52C1057.5 2048.29 1057.5 2068.03 1015 2068.03Z" fill="#997AEA"/>
</g>
<g filter="url(#filter17_d_63_18)">
<path d="M1100 1387.96C1148 1387.96 1148 1411.32 1148 1459.52C1148 1411.32 1148 1387.96 1196 1387.96C1148 1387.96 1148 1365.72 1148 1317.52C1148 1365.72 1148 1387.96 1100 1387.96Z" fill="#997AEA"/>
</g>
<g filter="url(#filter18_d_63_18)">
<path d="M1751 1148.16C1787 1148.16 1787 1163.29 1787 1194.52C1787 1163.29 1787 1148.16 1823 1148.16C1787 1148.16 1787 1133.75 1787 1102.52C1787 1133.75 1787 1148.16 1751 1148.16Z" fill="#997AEA"/>
</g>
<g filter="url(#filter19_d_63_18)">
<path d="M1168 1647.24C1196 1647.24 1196 1659.08 1196 1683.52C1196 1659.08 1196 1647.24 1224 1647.24C1196 1647.24 1196 1635.96 1196 1611.52C1196 1635.96 1196 1647.24 1168 1647.24Z" fill="#997AEA"/>
</g>
<g filter="url(#filter20_d_63_18)">
<path d="M1675 1603.25C1698 1603.25 1698 1614.44 1698 1637.52C1698 1614.44 1698 1603.25 1721 1603.25C1698 1603.25 1698 1592.6 1698 1569.52C1698 1592.6 1698 1603.25 1675 1603.25Z" fill="#997AEA"/>
</g>
<g filter="url(#filter21_d_63_18)">
<path d="M1492 1018.7C1520 1018.7 1520 1032.35 1520 1060.52C1520 1032.35 1520 1018.7 1548 1018.7C1520 1018.7 1520 1005.69 1520 977.52C1520 1005.69 1520 1018.7 1492 1018.7Z" fill="#997AEA"/>
</g>
<g filter="url(#filter22_d_63_18)">
<path d="M671 1974.7C699 1974.7 699 1988.35 699 2016.52C699 1988.35 699 1974.7 727 1974.7C699 1974.7 699 1961.69 699 1933.52C699 1961.69 699 1974.7 671 1974.7Z" fill="#997AEA"/>
</g>
<circle r="10" transform="matrix(-1 0 0 1 1731 1382.52)" fill="url(#paint18_radial_63_18)"/>
<circle r="12" transform="matrix(-1 0 0 1 1196 1891.52)" fill="url(#paint19_radial_63_18)"/>
<circle r="20" transform="matrix(-1 0 0 1 1416 2025.52)" fill="url(#paint20_radial_63_18)"/>
<circle r="15.5" transform="matrix(-1 0 0 1 917.5 1333.02)" fill="url(#paint21_radial_63_18)"/>
<circle r="9" transform="matrix(-1 0 0 1 1575 1870.52)" fill="url(#paint22_radial_63_18)"/>
<circle r="18.5" transform="matrix(-1 0 0 1 308.5 2304.5)" fill="url(#paint23_radial_63_18)"/>
<g filter="url(#filter23_d_63_18)">
<path d="M1015 1019.03C1057.5 1019.03 1057.5 1039.75 1057.5 1082.52C1057.5 1039.75 1057.5 1019.03 1100 1019.03C1057.5 1019.03 1057.5 999.288 1057.5 956.52C1057.5 999.288 1057.5 1019.03 1015 1019.03Z" fill="#997AEA"/>
</g>
<g filter="url(#filter24_d_63_18)">
<path d="M1233 339.964C1281 339.964 1281 363.322 1281 411.52C1281 363.322 1281 339.964 1329 339.964C1281 339.964 1281 317.719 1281 269.52C1281 317.719 1281 339.964 1233 339.964Z" fill="#997AEA"/>
</g>
<g filter="url(#filter25_d_63_18)">
<path d="M710 854.16C746 854.16 746 869.293 746 900.52C746 869.293 746 854.16 782 854.16C746 854.16 746 839.747 746 808.52C746 839.747 746 854.16 710 854.16Z" fill="#997AEA"/>
</g>
<g filter="url(#filter26_d_63_18)">
<path d="M555 456.238C583 456.238 583 468.082 583 492.52C583 468.082 583 456.238 611 456.238C583 456.238 583 444.959 583 420.52C583 444.959 583 456.238 555 456.238Z" fill="#997AEA"/>
</g>
<g filter="url(#filter27_d_63_18)">
<path d="M1675 554.254C1698 554.254 1698 565.439 1698 588.52C1698 565.439 1698 554.254 1721 554.254C1698 554.254 1698 543.601 1698 520.52C1698 543.601 1698 554.254 1675 554.254Z" fill="#997AEA"/>
</g>
<g filter="url(#filter28_d_63_18)">
<path d="M1849 814.695C1877 814.695 1877 828.348 1877 856.52C1877 828.348 1877 814.695 1905 814.695C1877 814.695 1877 801.693 1877 773.52C1877 801.693 1877 814.695 1849 814.695Z" fill="#997AEA"/>
</g>
<g filter="url(#filter29_d_63_18)">
<path d="M349 680.695C377 680.695 377 694.348 377 722.52C377 694.348 377 680.695 405 680.695C377 680.695 377 667.693 377 639.52C377 667.693 377 680.695 349 680.695Z" fill="#997AEA"/>
</g>
<circle r="10" transform="matrix(-1 0 0 1 1402 1240.52)" fill="url(#paint24_radial_63_18)"/>
<circle r="12" transform="matrix(-1 0 0 1 1196 842.52)" fill="url(#paint25_radial_63_18)"/>
<circle r="20" transform="matrix(-1 0 0 1 563 1204.52)" fill="url(#paint26_radial_63_18)"/>
<circle r="9" transform="matrix(-1 0 0 1 1575 821.52)" fill="url(#paint27_radial_63_18)"/>
<circle r="18.5" transform="matrix(-1 0 0 1 583.5 921.02)" fill="url(#paint28_radial_63_18)"/>
<circle r="13" transform="matrix(-1 0 0 1 304 505.52)" fill="url(#paint29_radial_63_18)"/>
<circle r="7" transform="matrix(-1 0 0 1 717 675.52)" fill="url(#paint30_radial_63_18)"/>
<circle r="14" transform="matrix(-1 0 0 1 1421 626.52)" fill="url(#paint31_radial_63_18)"/>
<circle r="11.5" transform="matrix(-1 0 0 1 1563.5 1654.02)" fill="url(#paint32_radial_63_18)"/>
<circle r="5.5" transform="matrix(-1 0 0 1 874.5 1981.02)" fill="url(#paint33_radial_63_18)"/>
<circle r="12" transform="matrix(-1 0 0 1 601 2215)" fill="url(#paint34_radial_63_18)"/>
<circle r="11" transform="matrix(-1 0 0 1 1058 2318.52)" fill="url(#paint35_radial_63_18)"/>
<circle r="14" transform="matrix(-1 0 0 1 61 2571.52)" fill="url(#paint36_radial_63_18)"/>
<circle r="14" transform="matrix(-1 0 0 1 302 3440.52)" fill="url(#paint37_radial_63_18)"/>
<defs>
<filter id="filter0_d_63_18" x="1542" y="3472" width="116" height="143" filterUnits="userSpaceOnUse" color-interpolation-filters="sRGB">
<feFlood flood-opacity="0" result="BackgroundImageFix"/>
<feColorMatrix in="SourceAlpha" type="matrix" values="0 0 0 0 0 0 0 0 0 0 0 0 0 0 0 0 0 0 127 0" result="hardAlpha"/>
<feOffset dx="8" dy="15"/>
<feGaussianBlur stdDeviation="15"/>
<feComposite in2="hardAlpha" operator="out"/>
<feColorMatrix type="matrix" values="0 0 0 0 0 0 0 0 0 0 0 0 0 0 0 0 0 0 0.4 0"/>
<feBlend mode="normal" in2="BackgroundImageFix" result="effect1_dropShadow_63_18"/>
<feBlend mode="normal" in="SourceGraphic" in2="effect1_dropShadow_63_18" result="shape"/>
</filter>
<filter id="filter1_d_63_18" x="216" y="3819.52" width="145" height="186" filterUnits="userSpaceOnUse" color-interpolation-filters="sRGB">
<feFlood flood-opacity="0" result="BackgroundImageFix"/>
<feColorMatrix in="SourceAlpha" type="matrix" values="0 0 0 0 0 0 0 0 0 0 0 0 0 0 0 0 0 0 127 0" result="hardAlpha"/>
<feOffset dx="8" dy="15"/>
<feGaussianBlur stdDeviation="15"/>
<feComposite in2="hardAlpha" operator="out"/>
<feColorMatrix type="matrix" values="0 0 0 0 0 0 0 0 0 0 0 0 0 0 0 0 0 0 0.4 0"/>
<feBlend mode="normal" in2="BackgroundImageFix" result="effect1_dropShadow_63_18"/>
<feBlend mode="normal" in="SourceGraphic" in2="effect1_dropShadow_63_18" result="shape"/>
</filter>
<filter id="filter2_d_63_18" x="120" y="3131.52" width="156" height="202" filterUnits="userSpaceOnUse" color-interpolation-filters="sRGB">
<feFlood flood-opacity="0" result="BackgroundImageFix"/>
<feColorMatrix in="SourceAlpha" type="matrix" values="0 0 0 0 0 0 0 0 0 0 0 0 0 0 0 0 0 0 127 0" result="hardAlpha"/>
<feOffset dx="8" dy="15"/>
<feGaussianBlur stdDeviation="15"/>
<feComposite in2="hardAlpha" operator="out"/>
<feColorMatrix type="matrix" values="0 0 0 0 0 0 0 0 0 0 0 0 0 0 0 0 0 0 0.4 0"/>
<feBlend mode="normal" in2="BackgroundImageFix" result="effect1_dropShadow_63_18"/>
<feBlend mode="normal" in="SourceGraphic" in2="effect1_dropShadow_63_18" result="shape"/>
</filter>
<filter id="filter3_d_63_18" x="53" y="2705.52" width="112" height="137" filterUnits="userSpaceOnUse" color-interpolation-filters="sRGB">
<feFlood flood-opacity="0" result="BackgroundImageFix"/>
<feColorMatrix in="SourceAlpha" type="matrix" values="0 0 0 0 0 0 0 0 0 0 0 0 0 0 0 0 0 0 127 0" result="hardAlpha"/>
<feOffset dx="8" dy="15"/>
<feGaussianBlur stdDeviation="15"/>
<feComposite in2="hardAlpha" operator="out"/>
<feColorMatrix type="matrix" values="0 0 0 0 0 0 0 0 0 0 0 0 0 0 0 0 0 0 0.4 0"/>
<feBlend mode="normal" in2="BackgroundImageFix" result="effect1_dropShadow_63_18"/>
<feBlend mode="normal" in="SourceGraphic" in2="effect1_dropShadow_63_18" result="shape"/>
</filter>
<filter id="filter4_d_63_18" x="1096" y="3086" width="132" height="152" filterUnits="userSpaceOnUse" color-interpolation-filters="sRGB">
<feFlood flood-opacity="0" result="BackgroundImageFix"/>
<feColorMatrix in="SourceAlpha" type="matrix" values="0 0 0 0 0 0 0 0 0 0 0 0 0 0 0 0 0 0 127 0" result="hardAlpha"/>
<feOffset dx="8" dy="15"/>
<feGaussianBlur stdDeviation="15"/>
<feComposite in2="hardAlpha" operator="out"/>
<feColorMatrix type="matrix" values="0 0 0 0 0 0 0 0 0 0 0 0 0 0 0 0 0 0 0.4 0"/>
<feBlend mode="normal" in2="BackgroundImageFix" result="effect1_dropShadow_63_18"/>
<feBlend mode="normal" in="SourceGraphic" in2="effect1_dropShadow_63_18" result="shape"/>
</filter>
<filter id="filter5_d_63_18" x="705" y="3283.52" width="116" height="132" filterUnits="userSpaceOnUse" color-interpolation-filters="sRGB">
<feFlood flood-opacity="0" result="BackgroundImageFix"/>
<feColorMatrix in="SourceAlpha" type="matrix" values="0 0 0 0 0 0 0 0 0 0 0 0 0 0 0 0 0 0 127 0" result="hardAlpha"/>
<feOffset dx="8" dy="15"/>
<feGaussianBlur stdDeviation="15"/>
<feComposite in2="hardAlpha" operator="out"/>
<feColorMatrix type="matrix" values="0 0 0 0 0 0 0 0 0 0 0 0 0 0 0 0 0 0 0.4 0"/>
<feBlend mode="normal" in2="BackgroundImageFix" result="effect1_dropShadow_63_18"/>
<feBlend mode="normal" in="SourceGraphic" in2="effect1_dropShadow_63_18" result="shape"/>
</filter>
<filter id="filter6_d_63_18" x="777" y="4056.52" width="116" height="143" filterUnits="userSpaceOnUse" color-interpolation-filters="sRGB">
<feFlood flood-opacity="0" result="BackgroundImageFix"/>
<feColorMatrix in="SourceAlpha" type="matrix" values="0 0 0 0 0 0 0 0 0 0 0 0 0 0 0 0 0 0 127 0" result="hardAlpha"/>
<feOffset dx="8" dy="15"/>
<feGaussianBlur stdDeviation="15"/>
<feComposite in2="hardAlpha" operator="out"/>
<feColorMatrix type="matrix" values="0 0 0 0 0 0 0 0 0 0 0 0 0 0 0 0 0 0 0.4 0"/>
<feBlend mode="normal" in2="BackgroundImageFix" result="effect1_dropShadow_63_18"/>
<feBlend mode="normal" in="SourceGraphic" in2="effect1_dropShadow_63_18" result="shape"/>
</filter>
<filter id="filter7_d_63_18" x="247" y="4131.52" width="93" height="109" filterUnits="userSpaceOnUse" color-interpolation-filters="sRGB">
<feFlood flood-opacity="0" result="BackgroundImageFix"/>
<feColorMatrix in="SourceAlpha" type="matrix" values="0 0 0 0 0 0 0 0 0 0 0 0 0 0 0 0 0 0 127 0" result="hardAlpha"/>
<feOffset dx="8" dy="15"/>
<feGaussianBlur stdDeviation="15"/>
<feComposite in2="hardAlpha" operator="out"/>
<feColorMatrix type="matrix" values="0 0 0 0 0 0 0 0 0 0 0 0 0 0 0 0 0 0 0.4 0"/>
<feBlend mode="normal" in2="BackgroundImageFix" result="effect1_dropShadow_63_18"/>
<feBlend mode="normal" in="SourceGraphic" in2="effect1_dropShadow_63_18" result="shape"/>
</filter>
<filter id="filter8_d_63_18" x="57" y="3529.52" width="86" height="99" filterUnits="userSpaceOnUse" color-interpolation-filters="sRGB">
<feFlood flood-opacity="0" result="BackgroundImageFix"/>
<feColorMatrix in="SourceAlpha" type="matrix" values="0 0 0 0 0 0 0 0 0 0 0 0 0 0 0 0 0 0 127 0" result="hardAlpha"/>
<feOffset dx="8" dy="15"/>
<feGaussianBlur stdDeviation="15"/>
<feComposite in2="hardAlpha" operator="out"/>
<feColorMatrix type="matrix" values="0 0 0 0 0 0 0 0 0 0 0 0 0 0 0 0 0 0 0.4 0"/>
<feBlend mode="normal" in2="BackgroundImageFix" result="effect1_dropShadow_63_18"/>
<feBlend mode="normal" in="SourceGraphic" in2="effect1_dropShadow_63_18" result="shape"/>
</filter>
<filter id="filter9_d_63_18" x="1719" y="3274.52" width="121" height="150" filterUnits="userSpaceOnUse" color-interpolation-filters="sRGB">
<feFlood flood-opacity="0" result="BackgroundImageFix"/>
<feColorMatrix in="SourceAlpha" type="matrix" values="0 0 0 0 0 0 0 0 0 0 0 0 0 0 0 0 0 0 127 0" result="hardAlpha"/>
<feOffset dx="8" dy="15"/>
<feGaussianBlur stdDeviation="15"/>
<feComposite in2="hardAlpha" operator="out"/>
<feColorMatrix type="matrix" values="0 0 0 0 0 0 0 0 0 0 0 0 0 0 0 0 0 0 0.4 0"/>
<feBlend mode="normal" in2="BackgroundImageFix" result="effect1_dropShadow_63_18"/>
<feBlend mode="normal" in="SourceGraphic" in2="effect1_dropShadow_63_18" result="shape"/>
</filter>
<filter id="filter10_d_63_18" x="648" y="3100" width="145" height="186" filterUnits="userSpaceOnUse" color-interpolation-filters="sRGB">
<feFlood flood-opacity="0" result="BackgroundImageFix"/>
<feColorMatrix in="SourceAlpha" type="matrix" values="0 0 0 0 0 0 0 0 0 0 0 0 0 0 0 0 0 0 127 0" result="hardAlpha"/>
<feOffset dx="8" dy="15"/>
<feGaussianBlur stdDeviation="15"/>
<feComposite in2="hardAlpha" operator="out"/>
<feColorMatrix type="matrix" values="0 0 0 0 0 0 0 0 0 0 0 0 0 0 0 0 0 0 0.4 0"/>
<feBlend mode="normal" in2="BackgroundImageFix" result="effect1_dropShadow_63_18"/>
<feBlend mode="normal" in="SourceGraphic" in2="effect1_dropShadow_63_18" result="shape"/>
</filter>
<filter id="filter11_d_63_18" x="657" y="2270.52" width="156" height="202" filterUnits="userSpaceOnUse" color-interpolation-filters="sRGB">
<feFlood flood-opacity="0" result="BackgroundImageFix"/>
<feColorMatrix in="SourceAlpha" type="matrix" values="0 0 0 0 0 0 0 0 0 0 0 0 0 0 0 0 0 0 127 0" result="hardAlpha"/>
<feOffset dx="8" dy="15"/>
<feGaussianBlur stdDeviation="15"/>
<feComposite in2="hardAlpha" operator="out"/>
<feColorMatrix type="matrix" values="0 0 0 0 0 0 0 0 0 0 0 0 0 0 0 0 0 0 0.4 0"/>
<feBlend mode="normal" in2="BackgroundImageFix" result="effect1_dropShadow_63_18"/>
<feBlend mode="normal" in="SourceGraphic" in2="effect1_dropShadow_63_18" result="shape"/>
</filter>
<filter id="filter12_d_63_18" x="168" y="2471" width="116" height="132" filterUnits="userSpaceOnUse" color-interpolation-filters="sRGB">
<feFlood flood-opacity="0" result="BackgroundImageFix"/>
<feColorMatrix in="SourceAlpha" type="matrix" values="0 0 0 0 0 0 0 0 0 0 0 0 0 0 0 0 0 0 127 0" result="hardAlpha"/>
<feOffset dx="8" dy="15"/>
<feGaussianBlur stdDeviation="15"/>
<feComposite in2="hardAlpha" operator="out"/>
<feColorMatrix type="matrix" values="0 0 0 0 0 0 0 0 0 0 0 0 0 0 0 0 0 0 0.4 0"/>
<feBlend mode="normal" in2="BackgroundImageFix" result="effect1_dropShadow_63_18"/>
<feBlend mode="normal" in="SourceGraphic" in2="effect1_dropShadow_63_18" result="shape"/>
</filter>
<filter id="filter13_d_63_18" x="1086" y="2368" width="106" height="128" filterUnits="userSpaceOnUse" color-interpolation-filters="sRGB">
<feFlood flood-opacity="0" result="BackgroundImageFix"/>
<feColorMatrix in="SourceAlpha" type="matrix" values="0 0 0 0 0 0 0 0 0 0 0 0 0 0 0 0 0 0 127 0" result="hardAlpha"/>
<feOffset dx="8" dy="15"/>
<feGaussianBlur stdDeviation="15"/>
<feComposite in2="hardAlpha" operator="out"/>
<feColorMatrix type="matrix" values="0 0 0 0 0 0 0 0 0 0 0 0 0 0 0 0 0 0 0.4 0"/>
<feBlend mode="normal" in2="BackgroundImageFix" result="effect1_dropShadow_63_18"/>
<feBlend mode="normal" in="SourceGraphic" in2="effect1_dropShadow_63_18" result="shape"/>
</filter>
<filter id="filter14_d_63_18" x="1632" y="2881" width="116" height="143" filterUnits="userSpaceOnUse" color-interpolation-filters="sRGB">
<feFlood flood-opacity="0" result="BackgroundImageFix"/>
<feColorMatrix in="SourceAlpha" type="matrix" values="0 0 0 0 0 0 0 0 0 0 0 0 0 0 0 0 0 0 127 0" result="hardAlpha"/>
<feOffset dx="8" dy="15"/>
<feGaussianBlur stdDeviation="15"/>
<feComposite in2="hardAlpha" operator="out"/>
<feColorMatrix type="matrix" values="0 0 0 0 0 0 0 0 0 0 0 0 0 0 0 0 0 0 0.4 0"/>
<feBlend mode="normal" in2="BackgroundImageFix" result="effect1_dropShadow_63_18"/>
<feBlend mode="normal" in="SourceGraphic" in2="effect1_dropShadow_63_18" result="shape"/>
</filter>
<filter id="filter15_d_63_18" x="1369" y="2161.52" width="121" height="150" filterUnits="userSpaceOnUse" color-interpolation-filters="sRGB">
<feFlood flood-opacity="0" result="BackgroundImageFix"/>
<feColorMatrix in="SourceAlpha" type="matrix" values="0 0 0 0 0 0 0 0 0 0 0 0 0 0 0 0 0 0 127 0" result="hardAlpha"/>
<feOffset dx="8" dy="15"/>
<feGaussianBlur stdDeviation="15"/>
<feComposite in2="hardAlpha" operator="out"/>
<feColorMatrix type="matrix" values="0 0 0 0 0 0 0 0 0 0 0 0 0 0 0 0 0 0 0.4 0"/>
<feBlend mode="normal" in2="BackgroundImageFix" result="effect1_dropShadow_63_18"/>
<feBlend mode="normal" in="SourceGraphic" in2="effect1_dropShadow_63_18" result="shape"/>
</filter>
<filter id="filter16_d_63_18" x="993" y="1990.52" width="145" height="186" filterUnits="userSpaceOnUse" color-interpolation-filters="sRGB">
<feFlood flood-opacity="0" result="BackgroundImageFix"/>
<feColorMatrix in="SourceAlpha" type="matrix" values="0 0 0 0 0 0 0 0 0 0 0 0 0 0 0 0 0 0 127 0" result="hardAlpha"/>
<feOffset dx="8" dy="15"/>
<feGaussianBlur stdDeviation="15"/>
<feComposite in2="hardAlpha" operator="out"/>
<feColorMatrix type="matrix" values="0 0 0 0 0 0 0 0 0 0 0 0 0 0 0 0 0 0 0.4 0"/>
<feBlend mode="normal" in2="BackgroundImageFix" result="effect1_dropShadow_63_18"/>
<feBlend mode="normal" in="SourceGraphic" in2="effect1_dropShadow_63_18" result="shape"/>
</filter>
<filter id="filter17_d_63_18" x="1078" y="1302.52" width="156" height="202" filterUnits="userSpaceOnUse" color-interpolation-filters="sRGB">
<feFlood flood-opacity="0" result="BackgroundImageFix"/>
<feColorMatrix in="SourceAlpha" type="matrix" values="0 0 0 0 0 0 0 0 0 0 0 0 0 0 0 0 0 0 127 0" result="hardAlpha"/>
<feOffset dx="8" dy="15"/>
<feGaussianBlur stdDeviation="15"/>
<feComposite in2="hardAlpha" operator="out"/>
<feColorMatrix type="matrix" values="0 0 0 0 0 0 0 0 0 0 0 0 0 0 0 0 0 0 0.4 0"/>
<feBlend mode="normal" in2="BackgroundImageFix" result="effect1_dropShadow_63_18"/>
<feBlend mode="normal" in="SourceGraphic" in2="effect1_dropShadow_63_18" result="shape"/>
</filter>
<filter id="filter18_d_63_18" x="1729" y="1087.52" width="132" height="152" filterUnits="userSpaceOnUse" color-interpolation-filters="sRGB">
<feFlood flood-opacity="0" result="BackgroundImageFix"/>
<feColorMatrix in="SourceAlpha" type="matrix" values="0 0 0 0 0 0 0 0 0 0 0 0 0 0 0 0 0 0 127 0" result="hardAlpha"/>
<feOffset dx="8" dy="15"/>
<feGaussianBlur stdDeviation="15"/>
<feComposite in2="hardAlpha" operator="out"/>
<feColorMatrix type="matrix" values="0 0 0 0 0 0 0 0 0 0 0 0 0 0 0 0 0 0 0.4 0"/>
<feBlend mode="normal" in2="BackgroundImageFix" result="effect1_dropShadow_63_18"/>
<feBlend mode="normal" in="SourceGraphic" in2="effect1_dropShadow_63_18" result="shape"/>
</filter>
<filter id="filter19_d_63_18" x="1146" y="1596.52" width="116" height="132" filterUnits="userSpaceOnUse" color-interpolation-filters="sRGB">
<feFlood flood-opacity="0" result="BackgroundImageFix"/>
<feColorMatrix in="SourceAlpha" type="matrix" values="0 0 0 0 0 0 0 0 0 0 0 0 0 0 0 0 0 0 127 0" result="hardAlpha"/>
<feOffset dx="8" dy="15"/>
<feGaussianBlur stdDeviation="15"/>
<feComposite in2="hardAlpha" operator="out"/>
<feColorMatrix type="matrix" values="0 0 0 0 0 0 0 0 0 0 0 0 0 0 0 0 0 0 0.4 0"/>
<feBlend mode="normal" in2="BackgroundImageFix" result="effect1_dropShadow_63_18"/>
<feBlend mode="normal" in="SourceGraphic" in2="effect1_dropShadow_63_18" result="shape"/>
</filter>
<filter id="filter20_d_63_18" x="1653" y="1554.52" width="106" height="128" filterUnits="userSpaceOnUse" color-interpolation-filters="sRGB">
<feFlood flood-opacity="0" result="BackgroundImageFix"/>
<feColorMatrix in="SourceAlpha" type="matrix" values="0 0 0 0 0 0 0 0 0 0 0 0 0 0 0 0 0 0 127 0" result="hardAlpha"/>
<feOffset dx="8" dy="15"/>
<feGaussianBlur stdDeviation="15"/>
<feComposite in2="hardAlpha" operator="out"/>
<feColorMatrix type="matrix" values="0 0 0 0 0 0 0 0 0 0 0 0 0 0 0 0 0 0 0.4 0"/>
<feBlend mode="normal" in2="BackgroundImageFix" result="effect1_dropShadow_63_18"/>
<feBlend mode="normal" in="SourceGraphic" in2="effect1_dropShadow_63_18" result="shape"/>
</filter>
<filter id="filter21_d_63_18" x="1470" y="962.52" width="116" height="143" filterUnits="userSpaceOnUse" color-interpolation-filters="sRGB">
<feFlood flood-opacity="0" result="BackgroundImageFix"/>
<feColorMatrix in="SourceAlpha" type="matrix" values="0 0 0 0 0 0 0 0 0 0 0 0 0 0 0 0 0 0 127 0" result="hardAlpha"/>
<feOffset dx="8" dy="15"/>
<feGaussianBlur stdDeviation="15"/>
<feComposite in2="hardAlpha" operator="out"/>
<feColorMatrix type="matrix" values="0 0 0 0 0 0 0 0 0 0 0 0 0 0 0 0 0 0 0.4 0"/>
<feBlend mode="normal" in2="BackgroundImageFix" result="effect1_dropShadow_63_18"/>
<feBlend mode="normal" in="SourceGraphic" in2="effect1_dropShadow_63_18" result="shape"/>
</filter>
<filter id="filter22_d_63_18" x="649" y="1918.52" width="116" height="143" filterUnits="userSpaceOnUse" color-interpolation-filters="sRGB">
<feFlood flood-opacity="0" result="BackgroundImageFix"/>
<feColorMatrix in="SourceAlpha" type="matrix" values="0 0 0 0 0 0 0 0 0 0 0 0 0 0 0 0 0 0 127 0" result="hardAlpha"/>
<feOffset dx="8" dy="15"/>
<feGaussianBlur stdDeviation="15"/>
<feComposite in2="hardAlpha" operator="out"/>
<feColorMatrix type="matrix" values="0 0 0 0 0 0 0 0 0 0 0 0 0 0 0 0 0 0 0.4 0"/>
<feBlend mode="normal" in2="BackgroundImageFix" result="effect1_dropShadow_63_18"/>
<feBlend mode="normal" in="SourceGraphic" in2="effect1_dropShadow_63_18" result="shape"/>
</filter>
<filter id="filter23_d_63_18" x="993" y="941.52" width="145" height="186" filterUnits="userSpaceOnUse" color-interpolation-filters="sRGB">
<feFlood flood-opacity="0" result="BackgroundImageFix"/>
<feColorMatrix in="SourceAlpha" type="matrix" values="0 0 0 0 0 0 0 0 0 0 0 0 0 0 0 0 0 0 127 0" result="hardAlpha"/>
<feOffset dx="8" dy="15"/>
<feGaussianBlur stdDeviation="15"/>
<feComposite in2="hardAlpha" operator="out"/>
<feColorMatrix type="matrix" values="0 0 0 0 0 0 0 0 0 0 0 0 0 0 0 0 0 0 0.4 0"/>
<feBlend mode="normal" in2="BackgroundImageFix" result="effect1_dropShadow_63_18"/>
<feBlend mode="normal" in="SourceGraphic" in2="effect1_dropShadow_63_18" result="shape"/>
</filter>
<filter id="filter24_d_63_18" x="1211" y="254.52" width="156" height="202" filterUnits="userSpaceOnUse" color-interpolation-filters="sRGB">
<feFlood flood-opacity="0" result="BackgroundImageFix"/>
<feColorMatrix in="SourceAlpha" type="matrix" values="0 0 0 0 0 0 0 0 0 0 0 0 0 0 0 0 0 0 127 0" result="hardAlpha"/>
<feOffset dx="8" dy="15"/>
<feGaussianBlur stdDeviation="15"/>
<feComposite in2="hardAlpha" operator="out"/>
<feColorMatrix type="matrix" values="0 0 0 0 0 0 0 0 0 0 0 0 0 0 0 0 0 0 0.4 0"/>
<feBlend mode="normal" in2="BackgroundImageFix" result="effect1_dropShadow_63_18"/>
<feBlend mode="normal" in="SourceGraphic" in2="effect1_dropShadow_63_18" result="shape"/>
</filter>
<filter id="filter25_d_63_18" x="688" y="793.52" width="132" height="152" filterUnits="userSpaceOnUse" color-interpolation-filters="sRGB">
<feFlood flood-opacity="0" result="BackgroundImageFix"/>
<feColorMatrix in="SourceAlpha" type="matrix" values="0 0 0 0 0 0 0 0 0 0 0 0 0 0 0 0 0 0 127 0" result="hardAlpha"/>
<feOffset dx="8" dy="15"/>
<feGaussianBlur stdDeviation="15"/>
<feComposite in2="hardAlpha" operator="out"/>
<feColorMatrix type="matrix" values="0 0 0 0 0 0 0 0 0 0 0 0 0 0 0 0 0 0 0.4 0"/>
<feBlend mode="normal" in2="BackgroundImageFix" result="effect1_dropShadow_63_18"/>
<feBlend mode="normal" in="SourceGraphic" in2="effect1_dropShadow_63_18" result="shape"/>
</filter>
<filter id="filter26_d_63_18" x="533" y="405.52" width="116" height="132" filterUnits="userSpaceOnUse" color-interpolation-filters="sRGB">
<feFlood flood-opacity="0" result="BackgroundImageFix"/>
<feColorMatrix in="SourceAlpha" type="matrix" values="0 0 0 0 0 0 0 0 0 0 0 0 0 0 0 0 0 0 127 0" result="hardAlpha"/>
<feOffset dx="8" dy="15"/>
<feGaussianBlur stdDeviation="15"/>
<feComposite in2="hardAlpha" operator="out"/>
<feColorMatrix type="matrix" values="0 0 0 0 0 0 0 0 0 0 0 0 0 0 0 0 0 0 0.4 0"/>
<feBlend mode="normal" in2="BackgroundImageFix" result="effect1_dropShadow_63_18"/>
<feBlend mode="normal" in="SourceGraphic" in2="effect1_dropShadow_63_18" result="shape"/>
</filter>
<filter id="filter27_d_63_18" x="1653" y="505.52" width="106" height="128" filterUnits="userSpaceOnUse" color-interpolation-filters="sRGB">
<feFlood flood-opacity="0" result="BackgroundImageFix"/>
<feColorMatrix in="SourceAlpha" type="matrix" values="0 0 0 0 0 0 0 0 0 0 0 0 0 0 0 0 0 0 127 0" result="hardAlpha"/>
<feOffset dx="8" dy="15"/>
<feGaussianBlur stdDeviation="15"/>
<feComposite in2="hardAlpha" operator="out"/>
<feColorMatrix type="matrix" values="0 0 0 0 0 0 0 0 0 0 0 0 0 0 0 0 0 0 0.4 0"/>
<feBlend mode="normal" in2="BackgroundImageFix" result="effect1_dropShadow_63_18"/>
<feBlend mode="normal" in="SourceGraphic" in2="effect1_dropShadow_63_18" result="shape"/>
</filter>
<filter id="filter28_d_63_18" x="1827" y="758.52" width="116" height="143" filterUnits="userSpaceOnUse" color-interpolation-filters="sRGB">
<feFlood flood-opacity="0" result="BackgroundImageFix"/>
<feColorMatrix in="SourceAlpha" type="matrix" values="0 0 0 0 0 0 0 0 0 0 0 0 0 0 0 0 0 0 127 0" result="hardAlpha"/>
<feOffset dx="8" dy="15"/>
<feGaussianBlur stdDeviation="15"/>
<feComposite in2="hardAlpha" operator="out"/>
<feColorMatrix type="matrix" values="0 0 0 0 0 0 0 0 0 0 0 0 0 0 0 0 0 0 0.4 0"/>
<feBlend mode="normal" in2="BackgroundImageFix" result="effect1_dropShadow_63_18"/>
<feBlend mode="normal" in="SourceGraphic" in2="effect1_dropShadow_63_18" result="shape"/>
</filter>
<filter id="filter29_d_63_18" x="327" y="624.52" width="116" height="143" filterUnits="userSpaceOnUse" color-interpolation-filters="sRGB">
<feFlood flood-opacity="0" result="BackgroundImageFix"/>
<feColorMatrix in="SourceAlpha" type="matrix" values="0 0 0 0 0 0 0 0 0 0 0 0 0 0 0 0 0 0 127 0" result="hardAlpha"/>
<feOffset dx="8" dy="15"/>
<feGaussianBlur stdDeviation="15"/>
<feComposite in2="hardAlpha" operator="out"/>
<feColorMatrix type="matrix" values="0 0 0 0 0 0 0 0 0 0 0 0 0 0 0 0 0 0 0.4 0"/>
<feBlend mode="normal" in2="BackgroundImageFix" result="effect1_dropShadow_63_18"/>
<feBlend mode="normal" in="SourceGraphic" in2="effect1_dropShadow_63_18" result="shape"/>
</filter>
<linearGradient id="paint0_linear_63_18" x1="662.768" y1="1088.06" x2="1.00018" y2="1088.06" gradientUnits="userSpaceOnUse">
<stop stop-color="#4E1AD2"/>
<stop offset="1" stop-color="#501CD5" stop-opacity="0"/>
</linearGradient>
<linearGradient id="paint1_linear_63_18" x1="2246.89" y1="135.427" x2="1641.73" y2="736.777" gradientUnits="userSpaceOnUse">
<stop stop-color="#4E1AD2"/>
<stop offset="1" stop-color="#10032E" stop-opacity="0.17"/>
</linearGradient>
<linearGradient id="paint2_linear_63_18" x1="1625" y1="181.521" x2="1275" y2="798.02" gradientUnits="userSpaceOnUse">
<stop stop-color="#4E1AD2"/>
<stop offset="1" stop-color="#10032E" stop-opacity="0.17"/>
</linearGradient>
<linearGradient id="paint3_linear_63_18" x1="916.933" y1="2837.34" x2="2020" y2="2837.34" gradientUnits="userSpaceOnUse">
<stop stop-color="#4A17CD"/>
<stop offset="1" stop-color="#501CD5" stop-opacity="0"/>
</linearGradient>
<radialGradient id="paint4_radial_63_18" cx="0" cy="0" r="1" gradientUnits="userSpaceOnUse" gradientTransform="translate(142 3720.52) rotate(90) scale(12)">
<stop stop-color="#501CD5" stop-opacity="0.5"/>
<stop offset="1" stop-color="#997AEA" stop-opacity="0"/>
</radialGradient>
<radialGradient id="paint5_radial_63_18" cx="0" cy="0" r="1" gradientUnits="userSpaceOnUse" gradientTransform="translate(1219 3406.52) rotate(90) scale(20)">
<stop stop-color="#501CD5" stop-opacity="0.5"/>
<stop offset="1" stop-color="#997AEA" stop-opacity="0"/>
</radialGradient>
<radialGradient id="paint6_radial_63_18" cx="0" cy="0" r="1" gradientUnits="userSpaceOnUse" gradientTransform="translate(420.5 3162.02) rotate(90) scale(15.5)">
<stop stop-color="#501CD5" stop-opacity="0.5"/>
<stop offset="1" stop-color="#997AEA" stop-opacity="0"/>
</radialGradient>
<radialGradient id="paint7_radial_63_18" cx="0" cy="0" r="1" gradientUnits="userSpaceOnUse" gradientTransform="translate(1515.5 3209.02) rotate(90) scale(24.5)">
<stop stop-color="#501CD5" stop-opacity="0.5"/>
<stop offset="1" stop-color="#997AEA" stop-opacity="0"/>
</radialGradient>
<radialGradient id="paint8_radial_63_18" cx="0" cy="0" r="1" gradientUnits="userSpaceOnUse" gradientTransform="translate(1780.5 3175.02) rotate(90) scale(9.5)">
<stop stop-color="#501CD5" stop-opacity="0.5"/>
<stop offset="1" stop-color="#997AEA" stop-opacity="0"/>
</radialGradient>
<radialGradient id="paint9_radial_63_18" cx="0" cy="0" r="1" gradientUnits="userSpaceOnUse" gradientTransform="translate(299.5 3623.5) rotate(90) scale(14.5)">
<stop stop-color="#501CD5" stop-opacity="0.5"/>
<stop offset="1" stop-color="#997AEA" stop-opacity="0"/>
</radialGradient>
<radialGradient id="paint10_radial_63_18" cx="0" cy="0" r="1" gradientUnits="userSpaceOnUse" gradientTransform="translate(124.5 4114.02) rotate(90) scale(7.5)">
<stop stop-color="#501CD5" stop-opacity="0.5"/>
<stop offset="1" stop-color="#997AEA" stop-opacity="0"/>
</radialGradient>
<radialGradient id="paint11_radial_63_18" cx="0" cy="0" r="1" gradientUnits="userSpaceOnUse" gradientTransform="translate(549 4085.52) rotate(90) scale(21)">
<stop stop-color="#501CD5" stop-opacity="0.5"/>
<stop offset="1" stop-color="#997AEA" stop-opacity="0"/>
</radialGradient>
<radialGradient id="paint12_radial_63_18" cx="0" cy="0" r="1" gradientUnits="userSpaceOnUse" gradientTransform="translate(10 10) rotate(90) scale(10)">
<stop stop-color="#501CD5" stop-opacity="0.5"/>
<stop offset="1" stop-color="#997AEA" stop-opacity="0"/>
</radialGradient>
<radialGradient id="paint13_radial_63_18" cx="0" cy="0" r="1" gradientUnits="userSpaceOnUse" gradientTransform="translate(7.5 7.5) rotate(90) scale(7.5)">
<stop stop-color="#501CD5" stop-opacity="0.5"/>
<stop offset="1" stop-color="#997AEA" stop-opacity="0"/>
</radialGradient>
<radialGradient id="paint14_radial_63_18" cx="0" cy="0" r="1" gradientUnits="userSpaceOnUse" gradientTransform="translate(12 12) rotate(90) scale(12)">
<stop stop-color="#501CD5" stop-opacity="0.5"/>
<stop offset="1" stop-color="#997AEA" stop-opacity="0"/>
</radialGradient>
<radialGradient id="paint15_radial_63_18" cx="0" cy="0" r="1" gradientUnits="userSpaceOnUse" gradientTransform="translate(15.5 15.5) rotate(90) scale(15.5)">
<stop stop-color="#501CD5" stop-opacity="0.5"/>
<stop offset="1" stop-color="#997AEA" stop-opacity="0"/>
</radialGradient>
<radialGradient id="paint16_radial_63_18" cx="0" cy="0" r="1" gradientUnits="userSpaceOnUse" gradientTransform="translate(9 9) rotate(90) scale(9)">
<stop stop-color="#501CD5" stop-opacity="0.5"/>
<stop offset="1" stop-color="#997AEA" stop-opacity="0"/>
</radialGradient>
<radialGradient id="paint17_radial_63_18" cx="0" cy="0" r="1" gradientUnits="userSpaceOnUse" gradientTransform="translate(18.5 18.5) rotate(90) scale(18.5)">
<stop stop-color="#501CD5" stop-opacity="0.5"/>
<stop offset="1" stop-color="#997AEA" stop-opacity="0"/>
</radialGradient>
<radialGradient id="paint18_radial_63_18" cx="0" cy="0" r="1" gradientUnits="userSpaceOnUse" gradientTransform="translate(10 10) rotate(90) scale(10)">
<stop stop-color="#501CD5" stop-opacity="0.5"/>
<stop offset="1" stop-color="#997AEA" stop-opacity="0"/>
</radialGradient>
<radialGradient id="paint19_radial_63_18" cx="0" cy="0" r="1" gradientUnits="userSpaceOnUse" gradientTransform="translate(12 12) rotate(90) scale(12)">
<stop stop-color="#501CD5" stop-opacity="0.5"/>
<stop offset="1" stop-color="#997AEA" stop-opacity="0"/>
</radialGradient>
<radialGradient id="paint20_radial_63_18" cx="0" cy="0" r="1" gradientUnits="userSpaceOnUse" gradientTransform="translate(20 20) rotate(90) scale(20)">
<stop stop-color="#501CD5" stop-opacity="0.5"/>
<stop offset="1" stop-color="#997AEA" stop-opacity="0"/>
</radialGradient>
<radialGradient id="paint21_radial_63_18" cx="0" cy="0" r="1" gradientUnits="userSpaceOnUse" gradientTransform="translate(15.5 15.5) rotate(90) scale(15.5)">
<stop stop-color="#501CD5" stop-opacity="0.5"/>
<stop offset="1" stop-color="#997AEA" stop-opacity="0"/>
</radialGradient>
<radialGradient id="paint22_radial_63_18" cx="0" cy="0" r="1" gradientUnits="userSpaceOnUse" gradientTransform="translate(9 9) rotate(90) scale(9)">
<stop stop-color="#501CD5" stop-opacity="0.5"/>
<stop offset="1" stop-color="#997AEA" stop-opacity="0"/>
</radialGradient>
<radialGradient id="paint23_radial_63_18" cx="0" cy="0" r="1" gradientUnits="userSpaceOnUse" gradientTransform="translate(18.5 18.5) rotate(90) scale(18.5)">
<stop stop-color="#501CD5" stop-opacity="0.5"/>
<stop offset="1" stop-color="#997AEA" stop-opacity="0"/>
</radialGradient>
<radialGradient id="paint24_radial_63_18" cx="0" cy="0" r="1" gradientUnits="userSpaceOnUse" gradientTransform="translate(10 10) rotate(90) scale(10)">
<stop stop-color="#501CD5" stop-opacity="0.5"/>
<stop offset="1" stop-color="#997AEA" stop-opacity="0"/>
</radialGradient>
<radialGradient id="paint25_radial_63_18" cx="0" cy="0" r="1" gradientUnits="userSpaceOnUse" gradientTransform="translate(12 12) rotate(90) scale(12)">
<stop stop-color="#501CD5" stop-opacity="0.5"/>
<stop offset="1" stop-color="#997AEA" stop-opacity="0"/>
</radialGradient>
<radialGradient id="paint26_radial_63_18" cx="0" cy="0" r="1" gradientUnits="userSpaceOnUse" gradientTransform="translate(20 20) rotate(90) scale(20)">
<stop stop-color="#501CD5" stop-opacity="0.5"/>
<stop offset="1" stop-color="#997AEA" stop-opacity="0"/>
</radialGradient>
<radialGradient id="paint27_radial_63_18" cx="0" cy="0" r="1" gradientUnits="userSpaceOnUse" gradientTransform="translate(9 9) rotate(90) scale(9)">
<stop stop-color="#501CD5" stop-opacity="0.5"/>
<stop offset="1" stop-color="#997AEA" stop-opacity="0"/>
</radialGradient>
<radialGradient id="paint28_radial_63_18" cx="0" cy="0" r="1" gradientUnits="userSpaceOnUse" gradientTransform="translate(18.5 18.5) rotate(90) scale(18.5)">
<stop stop-color="#501CD5" stop-opacity="0.5"/>
<stop offset="1" stop-color="#997AEA" stop-opacity="0"/>
</radialGradient>
<radialGradient id="paint29_radial_63_18" cx="0" cy="0" r="1" gradientUnits="userSpaceOnUse" gradientTransform="translate(13 13) rotate(90) scale(13)">
<stop stop-color="#501CD5" stop-opacity="0.5"/>
<stop offset="1" stop-color="#997AEA" stop-opacity="0"/>
</radialGradient>
<radialGradient id="paint30_radial_63_18" cx="0" cy="0" r="1" gradientUnits="userSpaceOnUse" gradientTransform="translate(7 7) rotate(90) scale(7)">
<stop stop-color="#501CD5" stop-opacity="0.5"/>
<stop offset="1" stop-color="#997AEA" stop-opacity="0"/>
</radialGradient>
<radialGradient id="paint31_radial_63_18" cx="0" cy="0" r="1" gradientUnits="userSpaceOnUse" gradientTransform="translate(14 14) rotate(90) scale(14)">
<stop stop-color="#501CD5" stop-opacity="0.5"/>
<stop offset="1" stop-color="#997AEA" stop-opacity="0"/>
</radialGradient>
<radialGradient id="paint32_radial_63_18" cx="0" cy="0" r="1" gradientUnits="userSpaceOnUse" gradientTransform="translate(11.5 11.5) rotate(90) scale(11.5)">
<stop stop-color="#501CD5" stop-opacity="0.5"/>
<stop offset="1" stop-color="#997AEA" stop-opacity="0"/>
</radialGradient>
<radialGradient id="paint33_radial_63_18" cx="0" cy="0" r="1" gradientUnits="userSpaceOnUse" gradientTransform="translate(5.5 5.5) rotate(90) scale(5.5)">
<stop stop-color="#501CD5" stop-opacity="0.5"/>
<stop offset="1" stop-color="#997AEA" stop-opacity="0"/>
</radialGradient>
<radialGradient id="paint34_radial_63_18" cx="0" cy="0" r="1" gradientUnits="userSpaceOnUse" gradientTransform="translate(12 12) rotate(90) scale(12)">
<stop stop-color="#501CD5" stop-opacity="0.5"/>
<stop offset="1" stop-color="#997AEA" stop-opacity="0"/>
</radialGradient>
<radialGradient id="paint35_radial_63_18" cx="0" cy="0" r="1" gradientUnits="userSpaceOnUse" gradientTransform="translate(11 11) rotate(90) scale(11)">
<stop stop-color="#501CD5" stop-opacity="0.5"/>
<stop offset="1" stop-color="#997AEA" stop-opacity="0"/>
</radialGradient>
<radialGradient id="paint36_radial_63_18" cx="0" cy="0" r="1" gradientUnits="userSpaceOnUse" gradientTransform="translate(14 14) rotate(90) scale(14)">
<stop stop-color="#501CD5" stop-opacity="0.5"/>
<stop offset="1" stop-color="#997AEA" stop-opacity="0"/>
</radialGradient>
<radialGradient id="paint37_radial_63_18" cx="0" cy="0" r="1" gradientUnits="userSpaceOnUse" gradientTransform="translate(14 14) rotate(90) scale(14)">
<stop stop-color="#501CD5" stop-opacity="0.5"/>
<stop offset="1" stop-color="#997AEA" stop-opacity="0"/>
</radialGradient>
</defs>
</svg>
