<svg width="30" height="22" viewBox="0 0 30 22" fill="none" xmlns="http://www.w3.org/2000/svg">
<path d="M25.3838 1.82833C23.4837 0.976058 21.4265 0.35747 19.2836 6.32281e-05C19.2648 -0.00051495 19.2461 0.00287796 19.2289 0.0100031C19.2116 0.0171283 19.1961 0.027813 19.1836 0.0413032C18.9265 0.494934 18.6265 1.08603 18.4265 1.53966C16.1535 1.20975 13.842 1.20975 11.5691 1.53966C11.3691 1.07228 11.0691 0.494934 10.7977 0.0413032C10.7834 0.0138104 10.7405 6.32281e-05 10.6977 6.32281e-05C8.55476 0.35747 6.51184 0.976058 4.5975 1.82833C4.58322 1.82833 4.56893 1.84208 4.55465 1.85583C0.668824 7.45061 -0.402634 12.8942 0.125952 18.2828C0.125952 18.3103 0.140238 18.3378 0.16881 18.3515C2.74031 20.166 5.21181 21.2657 7.65473 21.9943C7.69759 22.0081 7.74045 21.9943 7.75473 21.9668C8.32618 21.2108 8.84048 20.4135 9.28335 19.5749C9.31192 19.52 9.28335 19.465 9.2262 19.4512C8.41189 19.1488 7.64045 18.7914 6.88328 18.379C6.82614 18.3515 6.82614 18.269 6.86899 18.2278C7.02614 18.1178 7.18329 17.9941 7.34044 17.8841C7.36901 17.8566 7.41187 17.8566 7.44044 17.8704C12.3549 20.0286 17.655 20.0286 22.5123 17.8704C22.5409 17.8566 22.5837 17.8566 22.6123 17.8841C22.7694 18.0078 22.9266 18.1178 23.0837 18.2415C23.1409 18.2828 23.1409 18.3653 23.0694 18.3927C22.3266 18.8189 21.5408 19.1625 20.7265 19.465C20.6694 19.4787 20.6551 19.5474 20.6694 19.5887C21.1265 20.4272 21.6408 21.2245 22.198 21.9806C22.2408 21.9943 22.2837 22.0081 22.3266 21.9943C24.7838 21.2657 27.2553 20.166 29.8268 18.3515C29.8553 18.3378 29.8696 18.3103 29.8696 18.2828C30.4982 12.0557 28.8267 6.65332 25.4409 1.85583C25.4266 1.84208 25.4124 1.82833 25.3838 1.82833ZM10.0262 14.9974C8.55476 14.9974 7.32615 13.6915 7.32615 12.0831C7.32615 10.4748 8.52618 9.16891 10.0262 9.16891C11.5406 9.16891 12.7406 10.4886 12.7263 12.0831C12.7263 13.6915 11.5263 14.9974 10.0262 14.9974ZM19.9836 14.9974C18.5122 14.9974 17.2836 13.6915 17.2836 12.0831C17.2836 10.4748 18.4836 9.16891 19.9836 9.16891C21.498 9.16891 22.698 10.4886 22.6837 12.0831C22.6837 13.6915 21.498 14.9974 19.9836 14.9974Z" fill="#EBE9FF"/>
</svg>
