<svg width="40" height="40" viewBox="0 0 40 40" fill="none" xmlns="http://www.w3.org/2000/svg">
<path d="M23.7051 3.05139L25.1977 2.90214V2.90213L23.7051 3.05139ZM23.4634 2.15094L24.4699 1.03876L24.4699 1.03875L23.4634 2.15094ZM24.1333 7.33275L25.6258 7.18349L24.1333 7.33275ZM24.599 8.89687L25.1731 7.51105L25.1731 7.51105L24.599 8.89687ZM26.0344 8.12021L26.9843 9.28115L26.9843 9.28115L26.0344 8.12021ZM29.3645 5.3956L28.4146 4.23467L28.4146 4.23467L29.3645 5.3956ZM30.1721 4.92982L30.2468 3.43168L30.2468 3.43168L30.1721 4.92982ZM30.9294 5.47366L31.9901 4.413L31.9901 4.41299L30.9294 5.47366ZM34.5263 9.07052L35.5869 8.00986L34.5263 9.07052ZM35.0701 9.82781L33.572 9.90252V9.90254L35.0701 9.82781ZM34.6043 10.6355L33.4434 9.68561L34.6043 10.6355ZM31.8797 13.9656L33.0406 14.9155L31.8797 13.9656ZM31.103 15.4009L32.4888 14.8269L32.4888 14.8269L31.103 15.4009ZM32.6671 15.8667L32.8164 14.3742H32.8164L32.6671 15.8667ZM36.9486 16.2949L36.7994 17.7874L36.9486 16.2949ZM37.8491 16.5366L36.7369 17.5431L36.7369 17.5431L37.8491 16.5366ZM37.8491 23.4634L36.7369 22.4569L36.7369 22.4569L37.8491 23.4634ZM36.9486 23.7051L37.0979 25.1977H37.0979L36.9486 23.7051ZM32.6678 24.1332L32.8171 25.6258L32.6678 24.1332ZM31.1037 24.599L32.4895 25.173L32.4895 25.173L31.1037 24.599ZM31.8804 26.0343L30.7194 26.9842L31.8804 26.0343ZM34.6044 29.3637L35.7653 28.4139L34.6044 29.3637ZM35.0702 30.1714L33.5721 30.0967V30.0967L35.0702 30.1714ZM34.5264 30.9287L33.4657 29.868L34.5264 30.9287ZM30.9295 34.5255L31.9902 35.5862L30.9295 34.5255ZM29.3646 34.6036L30.3144 33.4427L30.3144 33.4427L29.3646 34.6036ZM26.0345 31.879L25.0846 33.0399L26.0345 31.879ZM24.5991 31.1023L24.0251 29.7165L24.0251 29.7165L24.5991 31.1023ZM24.1334 32.6665L25.6259 32.8157V32.8157L24.1334 32.6665ZM23.7051 36.9486L25.1977 37.0979L23.7051 36.9486ZM23.4634 37.8491L24.4699 38.9613L24.4699 38.9612L23.4634 37.8491ZM16.5366 37.8491L15.5301 38.9612L15.5301 38.9613L16.5366 37.8491ZM16.2949 36.9486L14.8023 37.0979L16.2949 36.9486ZM15.8667 32.6672L14.3742 32.8164V32.8164L15.8667 32.6672ZM15.4009 31.103L15.975 29.7172L15.975 29.7172L15.4009 31.103ZM13.9656 31.8797L14.9155 33.0406L13.9656 31.8797ZM10.6354 34.6044L11.5852 35.7654H11.5852L10.6354 34.6044ZM9.07044 34.5264L8.00978 35.587L9.07044 34.5264ZM5.47357 30.9295L4.41291 31.9902H4.41291L5.47357 30.9295ZM4.92974 30.1722L3.4316 30.2469V30.2469L4.92974 30.1722ZM5.39552 29.3646L6.55646 30.3144L6.55646 30.3144L5.39552 29.3646ZM8.1202 26.0344L6.95927 25.0845H6.95927L8.1202 26.0344ZM8.89686 24.599L7.51104 25.1731L7.51104 25.1731L8.89686 24.599ZM7.33273 24.1333L7.48199 22.6407H7.48199L7.33273 24.1333ZM3.05139 23.7051L2.90213 25.1977H2.90213L3.05139 23.7051ZM2.15094 23.4634L3.26312 22.4569L3.26311 22.4569L2.15094 23.4634ZM2.15094 16.5366L3.26311 17.5431L3.26312 17.5431L2.15094 16.5366ZM3.05139 16.2949L3.20064 17.7874H3.20065L3.05139 16.2949ZM7.33341 15.8667L7.18415 14.3741H7.18415L7.33341 15.8667ZM8.12088 13.9655L6.95994 14.9154H6.95994L8.12088 13.9655ZM5.3956 10.6346L6.55654 9.68479V9.68479L5.3956 10.6346ZM4.92982 9.827L3.43168 9.75227V9.75228L4.92982 9.827ZM5.47366 9.0697L6.53432 10.1304H6.53432L5.47366 9.0697ZM9.07052 5.47284L10.1312 6.5335L10.1312 6.5335L9.07052 5.47284ZM9.82781 4.929L9.75309 3.43086L9.75309 3.43086L9.82781 4.929ZM10.6355 5.39479L9.68561 6.55572L10.6355 5.39479ZM13.9657 8.11951L13.0158 9.28044V9.28044L13.9657 8.11951ZM15.401 8.89616L14.827 7.51034L14.827 7.51034L15.401 8.89616ZM15.8668 7.33204L14.3742 7.18278V7.18278L15.8668 7.33204ZM16.2949 3.05139L14.8023 2.90213V2.90213L16.2949 3.05139ZM16.5366 2.15094L15.5301 1.03876L15.5301 1.03876L16.5366 2.15094ZM25.1977 2.90213C25.1767 2.6922 25.1495 2.39134 25.0893 2.13157C25.0194 1.83009 24.8677 1.39876 24.4699 1.03876L22.4569 3.26311C22.352 3.16815 22.2762 3.06126 22.2264 2.96297C22.1816 2.87451 22.1675 2.81199 22.1668 2.8092C22.1665 2.80771 22.172 2.83203 22.1813 2.9067C22.1905 2.98088 22.1996 3.07039 22.2126 3.20065L25.1977 2.90213ZM25.6258 7.18349L25.1977 2.90214L22.2126 3.20065L22.6407 7.482L25.6258 7.18349ZM25.1731 7.51105C25.276 7.55369 25.3758 7.61391 25.4653 7.69052C25.5535 7.76592 25.616 7.84367 25.6584 7.9084C25.7352 8.0257 25.7473 8.10279 25.7356 8.05633C25.7254 8.01573 25.7093 7.93211 25.689 7.77208C25.6691 7.6149 25.6503 7.42786 25.6258 7.18349L22.6407 7.482C22.6833 7.90811 22.7285 8.39975 22.8262 8.78825C22.9245 9.17888 23.1882 9.93607 24.025 10.2827L25.1731 7.51105ZM25.0845 6.95928C24.8945 7.11479 24.7489 7.23375 24.6237 7.33081C24.4962 7.42963 24.4257 7.47738 24.3897 7.49887C24.3486 7.52346 24.4117 7.47747 24.5489 7.44885C24.6247 7.43305 24.7239 7.42229 24.8395 7.4313C24.957 7.44046 25.0701 7.46841 25.1731 7.51105L24.025 10.2827C24.8618 10.6293 25.5837 10.2804 25.9294 10.0736C26.2732 9.86803 26.6528 9.55232 26.9843 9.28115L25.0845 6.95928ZM28.4146 4.23467L25.0845 6.95928L26.9843 9.28115L30.3143 6.55654L28.4146 4.23467ZM30.2468 3.43168C29.711 3.40496 29.2987 3.60268 29.0361 3.76644C28.8099 3.90753 28.5779 4.10107 28.4146 4.23467L30.3143 6.55654C30.4156 6.47365 30.4853 6.41675 30.5443 6.37083C30.6037 6.32462 30.6248 6.31128 30.6235 6.31209C30.621 6.3136 30.5668 6.34782 30.4726 6.37867C30.3679 6.41296 30.2388 6.43501 30.0974 6.42796L30.2468 3.43168ZM31.9901 4.41299C31.8409 4.26381 31.6294 4.04815 31.4182 3.88524C31.1732 3.69617 30.7827 3.45841 30.2468 3.43168L30.0974 6.42796C29.956 6.42091 29.8298 6.38613 29.729 6.34159C29.6383 6.3015 29.5877 6.26207 29.5855 6.26032C29.5843 6.25938 29.6039 6.27475 29.6584 6.32664C29.7125 6.3782 29.7762 6.44175 29.8688 6.53432L31.9901 4.41299ZM35.5869 8.00986L31.9901 4.413L29.8688 6.53432L33.4656 10.1312L35.5869 8.00986ZM36.5683 9.7531C36.5415 9.21726 36.3038 8.82671 36.1147 8.5817C35.9518 8.37058 35.7361 8.15905 35.5869 8.00986L33.4656 10.1312C33.5582 10.2237 33.6217 10.2874 33.6733 10.3416C33.7252 10.396 33.7406 10.4157 33.7396 10.4145C33.7379 10.4122 33.6984 10.3617 33.6583 10.2709C33.6138 10.1702 33.579 10.0439 33.572 9.90252L36.5683 9.7531ZM35.7653 11.5853C35.8989 11.422 36.0924 11.1901 36.2335 10.9638C36.3973 10.7012 36.595 10.2889 36.5683 9.75309L33.572 9.90254C33.5649 9.76119 33.587 9.63207 33.6213 9.52736C33.6521 9.43311 33.6863 9.3789 33.6878 9.37647C33.6887 9.37517 33.6753 9.39623 33.6291 9.45561C33.5832 9.5146 33.5263 9.58429 33.4434 9.68561L35.7653 11.5853ZM33.0406 14.9155L35.7653 11.5853L33.4434 9.68561L30.7187 13.0157L33.0406 14.9155ZM32.4888 14.8269C32.5315 14.9299 32.5594 15.043 32.5686 15.1605C32.5776 15.2761 32.5668 15.3753 32.551 15.4511C32.5224 15.5883 32.4764 15.6514 32.501 15.6102C32.5225 15.5743 32.5703 15.5038 32.6691 15.3763C32.7661 15.2511 32.8851 15.1055 33.0406 14.9155L30.7187 13.0157C30.4476 13.3472 30.1319 13.7267 29.9263 14.0706C29.7195 14.4163 29.3706 15.1382 29.7172 15.975L32.4888 14.8269ZM32.8164 14.3742C32.572 14.3497 32.385 14.3309 32.2278 14.311C32.0678 14.2907 31.9842 14.2746 31.9436 14.2644C31.8971 14.2527 31.9742 14.2648 32.0915 14.3416C32.1562 14.384 32.234 14.4465 32.3094 14.5347C32.386 14.6242 32.4462 14.724 32.4888 14.8269L29.7172 15.975C30.0638 16.8118 30.821 17.0755 31.2116 17.1738C31.6001 17.2715 32.0918 17.3167 32.5179 17.3593L32.8164 14.3742ZM37.0979 14.8023L32.8164 14.3742L32.5179 17.3593L36.7994 17.7874L37.0979 14.8023ZM38.9612 15.5301C38.6012 15.1323 38.1699 14.9806 37.8684 14.9107C37.6087 14.8505 37.3078 14.8233 37.0979 14.8023L36.7994 17.7874C36.9296 17.8004 37.0191 17.8095 37.0933 17.8187C37.168 17.828 37.1923 17.8335 37.1908 17.8332C37.188 17.8325 37.1255 17.8184 37.037 17.7735C36.9387 17.7237 36.8318 17.648 36.7369 17.5431L38.9612 15.5301ZM39.5 17.4566C39.5 17.2457 39.5029 16.9436 39.4688 16.6791C39.4293 16.3722 39.3212 15.9279 38.9612 15.5301L36.7369 17.5431C36.6419 17.4382 36.5772 17.3243 36.5374 17.2215C36.5017 17.129 36.4938 17.0654 36.4934 17.0626C36.4932 17.0611 36.4963 17.0858 36.4981 17.161C36.4999 17.2358 36.5 17.3257 36.5 17.4566H39.5ZM39.5 22.5434V17.4566H36.5V22.5434H39.5ZM38.9612 24.4699C39.3212 24.0721 39.4293 23.6278 39.4688 23.3209C39.5029 23.0564 39.5 22.7544 39.5 22.5434H36.5C36.5 22.6743 36.4999 22.7642 36.4981 22.839C36.4963 22.9142 36.4932 22.9389 36.4934 22.9374C36.4938 22.9346 36.5017 22.871 36.5374 22.7785C36.5772 22.6757 36.6419 22.5618 36.7369 22.4569L38.9612 24.4699ZM37.0979 25.1977C37.3078 25.1767 37.6087 25.1495 37.8684 25.0893C38.1699 25.0194 38.6012 24.8677 38.9612 24.4699L36.7369 22.4569C36.8318 22.352 36.9387 22.2763 37.037 22.2265C37.1255 22.1816 37.188 22.1675 37.1908 22.1668C37.1923 22.1665 37.168 22.172 37.0933 22.1813C37.0191 22.1905 36.9296 22.1996 36.7994 22.2126L37.0979 25.1977ZM32.8171 25.6258L37.0979 25.1977L36.7994 22.2126L32.5186 22.6407L32.8171 25.6258ZM32.4895 25.173C32.4469 25.2759 32.3867 25.3757 32.31 25.4653C32.2346 25.5534 32.1569 25.6159 32.0922 25.6583C31.9749 25.7351 31.8978 25.7472 31.9442 25.7355C31.9848 25.7253 32.0685 25.7092 32.2285 25.6889C32.3857 25.669 32.5727 25.6502 32.8171 25.6258L32.5186 22.6407C32.0925 22.6833 31.6008 22.7284 31.2123 22.8262C30.8217 22.9244 30.0645 23.1882 29.7179 24.025L32.4895 25.173ZM33.0413 25.0845C32.8858 24.8944 32.7668 24.7488 32.6698 24.6236C32.5709 24.4961 32.5232 24.4256 32.5017 24.3897C32.4771 24.3486 32.5231 24.4116 32.5517 24.5489C32.5675 24.6246 32.5783 24.7238 32.5693 24.8395C32.5601 24.957 32.5322 25.0701 32.4895 25.173L29.7179 24.025C29.3713 24.8618 29.7202 25.5837 29.9269 25.9294C30.1325 26.2732 30.4482 26.6528 30.7194 26.9842L33.0413 25.0845ZM35.7653 28.4139L33.0413 25.0845L30.7194 26.9842L33.4435 30.3136L35.7653 28.4139ZM36.5683 30.2461C36.5951 29.7103 36.3973 29.298 36.2336 29.0354C36.0925 28.8091 35.899 28.5772 35.7653 28.4139L33.4435 30.3136C33.5264 30.4149 33.5833 30.4846 33.6292 30.5436C33.6754 30.603 33.6887 30.624 33.6879 30.6227C33.6864 30.6203 33.6522 30.5661 33.6213 30.4718C33.587 30.3671 33.565 30.238 33.5721 30.0967L36.5683 30.2461ZM35.587 31.9893C35.7362 31.8402 35.9519 31.6286 36.1148 31.4175C36.3038 31.1725 36.5416 30.7819 36.5683 30.2461L33.5721 30.0967C33.5791 29.9553 33.6139 29.829 33.6584 29.7283C33.6985 29.6376 33.7379 29.587 33.7397 29.5847C33.7406 29.5835 33.7253 29.6032 33.6734 29.6576C33.6218 29.7118 33.5583 29.7755 33.4657 29.868L35.587 31.9893ZM31.9902 35.5862L35.587 31.9893L33.4657 29.868L29.8688 33.4649L31.9902 35.5862ZM30.2469 36.5675C30.7828 36.5408 31.1733 36.303 31.4183 36.114C31.6294 35.951 31.841 35.7354 31.9902 35.5862L29.8688 33.4649C29.7763 33.5574 29.7126 33.621 29.6585 33.6726C29.604 33.7245 29.5843 33.7398 29.5856 33.7389C29.5878 33.7371 29.6384 33.6977 29.7291 33.6576C29.8298 33.6131 29.9561 33.5783 30.0975 33.5712L30.2469 36.5675ZM28.4147 35.7645C28.578 35.8981 28.8099 36.0917 29.0362 36.2328C29.2988 36.3965 29.7111 36.5942 30.2469 36.5675L30.0975 33.5712C30.2388 33.5642 30.3679 33.5862 30.4727 33.6205C30.5669 33.6514 30.6211 33.6856 30.6235 33.6871C30.6248 33.6879 30.6038 33.6746 30.5444 33.6284C30.4854 33.5825 30.4157 33.5256 30.3144 33.4427L28.4147 35.7645ZM25.0846 33.0399L28.4147 35.7645L30.3144 33.4427L26.9843 30.7181L25.0846 33.0399ZM25.1731 32.4882C25.0702 32.5308 24.9571 32.5587 24.8396 32.5679C24.7239 32.5769 24.6247 32.5662 24.549 32.5504C24.4117 32.5217 24.3487 32.4757 24.3898 32.5003C24.4258 32.5218 24.4963 32.5696 24.6238 32.6684C24.749 32.7655 24.8945 32.8844 25.0846 33.0399L26.9843 30.7181C26.6529 30.4469 26.2733 30.1312 25.9295 29.9256C25.5838 29.7188 24.8619 29.3699 24.0251 29.7165L25.1731 32.4882ZM25.6259 32.8157C25.6503 32.5713 25.6692 32.3843 25.6891 32.2271C25.7094 32.0671 25.7254 31.9835 25.7357 31.9429C25.7473 31.8964 25.7353 31.9735 25.6585 32.0908C25.6161 32.1555 25.5535 32.2333 25.4654 32.3087C25.3758 32.3853 25.2761 32.4455 25.1732 32.4881L24.0251 29.7165C23.1883 30.0631 22.9246 30.8203 22.8263 31.211C22.7286 31.5995 22.6834 32.0911 22.6408 32.5172L25.6259 32.8157ZM25.1977 37.0979L25.6259 32.8157L22.6408 32.5172L22.2126 36.7994L25.1977 37.0979ZM24.4699 38.9612C24.8677 38.6012 25.0194 38.1699 25.0893 37.8684C25.1495 37.6087 25.1767 37.3078 25.1977 37.0979L22.2126 36.7994C22.1996 36.9296 22.1905 37.0191 22.1813 37.0933C22.172 37.168 22.1665 37.1923 22.1668 37.1908C22.1675 37.188 22.1816 37.1255 22.2264 37.037C22.2762 36.9387 22.352 36.8319 22.4569 36.7369L24.4699 38.9612ZM22.5434 39.5C22.7543 39.5 23.0564 39.5029 23.3209 39.4688C23.6278 39.4293 24.0721 39.3212 24.4699 38.9613L22.4569 36.7369C22.5618 36.6419 22.6757 36.5772 22.7785 36.5374C22.871 36.5017 22.9346 36.4938 22.9374 36.4934C22.9389 36.4932 22.9142 36.4963 22.839 36.4981C22.7642 36.4999 22.6743 36.5 22.5434 36.5V39.5ZM17.4566 39.5H22.5434V36.5H17.4566V39.5ZM15.5301 38.9613C15.9279 39.3212 16.3722 39.4293 16.6791 39.4688C16.9436 39.5029 17.2457 39.5 17.4566 39.5V36.5C17.3257 36.5 17.2358 36.4999 17.161 36.4981C17.0858 36.4963 17.0611 36.4932 17.0626 36.4934C17.0654 36.4938 17.129 36.5017 17.2215 36.5374C17.3243 36.5772 17.4382 36.6419 17.5431 36.7369L15.5301 38.9613ZM14.8023 37.0979C14.8233 37.3078 14.8505 37.6087 14.9107 37.8684C14.9806 38.1699 15.1323 38.6012 15.5301 38.9612L17.5431 36.7369C17.648 36.8319 17.7238 36.9387 17.7736 37.037C17.8184 37.1255 17.8325 37.188 17.8332 37.1908C17.8335 37.1923 17.828 37.168 17.8187 37.0933C17.8095 37.0191 17.8004 36.9296 17.7874 36.7994L14.8023 37.0979ZM14.3742 32.8164L14.8023 37.0979L17.7874 36.7994L17.3593 32.5179L14.3742 32.8164ZM14.8269 32.4889C14.724 32.4462 14.6242 32.386 14.5347 32.3094C14.4465 32.234 14.384 32.1562 14.3416 32.0915C14.2648 31.9742 14.2527 31.8971 14.2644 31.9436C14.2746 31.9842 14.2907 32.0678 14.311 32.2278C14.3309 32.385 14.3497 32.5721 14.3742 32.8164L17.3593 32.5179C17.3167 32.0918 17.2715 31.6002 17.1738 31.2117C17.0755 30.821 16.8118 30.0638 15.975 29.7172L14.8269 32.4889ZM14.9155 33.0406C15.1055 32.8851 15.2511 32.7662 15.3763 32.6691C15.5038 32.5703 15.5743 32.5225 15.6102 32.501C15.6514 32.4765 15.5883 32.5224 15.4511 32.5511C15.3753 32.5669 15.2761 32.5776 15.1605 32.5686C15.043 32.5594 14.9299 32.5315 14.8269 32.4889L15.975 29.7172C15.1382 29.3706 14.4163 29.7196 14.0706 29.9263C13.7267 30.1319 13.3472 30.4476 13.0157 30.7188L14.9155 33.0406ZM11.5852 35.7654L14.9155 33.0406L13.0157 30.7188L9.68552 33.4435L11.5852 35.7654ZM9.753 36.5683C10.2888 36.5951 10.7011 36.3973 10.9637 36.2336C11.19 36.0925 11.4219 35.899 11.5852 35.7654L9.68552 33.4435C9.58421 33.5264 9.51452 33.5833 9.45552 33.6292C9.39614 33.6754 9.37508 33.6887 9.37638 33.6879C9.37881 33.6864 9.43302 33.6522 9.52727 33.6213C9.63199 33.5871 9.7611 33.565 9.90246 33.5721L9.753 36.5683ZM8.00978 35.587C8.15896 35.7362 8.3705 35.9519 8.58161 36.1148C8.82663 36.3038 9.21717 36.5416 9.753 36.5683L9.90246 33.5721C10.0438 33.5791 10.1701 33.6139 10.2709 33.6584C10.3616 33.6985 10.4121 33.738 10.4144 33.7397C10.4156 33.7406 10.396 33.7253 10.3415 33.6734C10.2873 33.6218 10.2237 33.5583 10.1311 33.4657L8.00978 35.587ZM4.41291 31.9902L8.00978 35.587L10.1311 33.4657L6.53423 29.8688L4.41291 31.9902ZM3.4316 30.2469C3.45832 30.7828 3.69609 31.1733 3.88516 31.4183C4.04807 31.6294 4.26373 31.841 4.41291 31.9902L6.53423 29.8688C6.44167 29.7763 6.37812 29.7126 6.32656 29.6585C6.27467 29.604 6.2593 29.5844 6.26024 29.5856C6.26198 29.5878 6.30142 29.6384 6.34151 29.7291C6.38604 29.8299 6.42082 29.9561 6.42787 30.0975L3.4316 30.2469ZM4.23459 28.4147C4.10098 28.578 3.90745 28.8099 3.76635 29.0362C3.6026 29.2988 3.40487 29.7111 3.4316 30.2469L6.42787 30.0975C6.43492 30.2388 6.41288 30.368 6.37859 30.4727C6.34773 30.5669 6.31352 30.6211 6.31201 30.6236C6.3112 30.6249 6.32453 30.6038 6.37075 30.5444C6.41666 30.4854 6.47356 30.4157 6.55646 30.3144L4.23459 28.4147ZM6.95927 25.0845L4.23458 28.4147L6.55646 30.3144L9.28114 26.9842L6.95927 25.0845ZM7.51104 25.1731C7.4684 25.0701 7.44045 24.957 7.43129 24.8395C7.42228 24.7239 7.43304 24.6247 7.44883 24.5489C7.47746 24.4117 7.52345 24.3486 7.49886 24.3897C7.47737 24.4257 7.42962 24.4962 7.3308 24.6237C7.23374 24.7489 7.11478 24.8945 6.95927 25.0845L9.28114 26.9842C9.55231 26.6528 9.86802 26.2732 10.0736 25.9294C10.2803 25.5837 10.6293 24.8618 10.2827 24.025L7.51104 25.1731ZM7.18347 25.6258C7.42784 25.6503 7.61488 25.6691 7.77207 25.689C7.9321 25.7093 8.01572 25.7254 8.05632 25.7356C8.10278 25.7473 8.02568 25.7352 7.90839 25.6584C7.84366 25.616 7.76591 25.5535 7.69051 25.4653C7.6139 25.3758 7.55367 25.276 7.51104 25.1731L10.2827 24.025C9.93606 23.1882 9.17886 22.9245 8.78824 22.8262C8.39974 22.7285 7.9081 22.6833 7.48199 22.6407L7.18347 25.6258ZM2.90213 25.1977L7.18348 25.6258L7.48199 22.6407L3.20065 22.2126L2.90213 25.1977ZM1.03875 24.4699C1.39876 24.8677 1.83011 25.0194 2.13158 25.0893C2.39134 25.1495 2.6922 25.1767 2.90213 25.1977L3.20065 22.2126C3.0704 22.1996 2.98089 22.1905 2.9067 22.1813C2.83203 22.172 2.80771 22.1665 2.8092 22.1668C2.81198 22.1675 2.8745 22.1816 2.96296 22.2264C3.06125 22.2762 3.16814 22.352 3.26312 22.4569L1.03875 24.4699ZM0.5 22.5434C0.5 22.7543 0.497086 23.0564 0.531172 23.3209C0.570731 23.6278 0.678759 24.0721 1.03876 24.4699L3.26311 22.4569C3.35808 22.5618 3.42278 22.6757 3.46255 22.7785C3.49835 22.871 3.5062 22.9346 3.50656 22.9374C3.50676 22.9389 3.50375 22.9142 3.50191 22.839C3.50009 22.7642 3.5 22.6743 3.5 22.5434H0.5ZM0.5 17.4566V22.5434H3.5V17.4566H0.5ZM1.03876 15.5301C0.678759 15.9279 0.570731 16.3722 0.531172 16.6791C0.497086 16.9436 0.5 17.2456 0.5 17.4566H3.5C3.5 17.3257 3.50009 17.2358 3.50191 17.161C3.50375 17.0858 3.50676 17.0611 3.50656 17.0626C3.5062 17.0654 3.49835 17.129 3.46255 17.2215C3.42278 17.3243 3.35808 17.4382 3.26311 17.5431L1.03876 15.5301ZM2.90214 14.8023C2.6922 14.8233 2.39134 14.8505 2.13157 14.9107C1.83008 14.9806 1.39876 15.1323 1.03876 15.5301L3.26312 17.5431C3.16815 17.648 3.06127 17.7237 2.96298 17.7735C2.87451 17.8184 2.81199 17.8325 2.8092 17.8332C2.80771 17.8335 2.83203 17.828 2.90669 17.8187C2.98088 17.8095 3.07039 17.8004 3.20064 17.7874L2.90214 14.8023ZM7.18415 14.3741L2.90213 14.8023L3.20065 17.7874L7.48266 17.3592L7.18415 14.3741ZM7.51171 14.8269C7.55435 14.7239 7.61458 14.6242 7.69118 14.5346C7.76659 14.4465 7.84434 14.3839 7.90906 14.3415C8.02636 14.2647 8.10345 14.2527 8.05699 14.2644C8.01639 14.2746 7.93278 14.2907 7.77274 14.3109C7.61556 14.3309 7.42852 14.3497 7.18415 14.3741L7.48266 17.3592C7.90877 17.3166 8.40041 17.2714 8.78891 17.1737C9.17954 17.0754 9.93674 16.8117 10.2834 15.9749L7.51171 14.8269ZM6.95994 14.9154C7.11546 15.1055 7.23441 15.251 7.33147 15.3763C7.43029 15.5038 7.47805 15.5743 7.49954 15.6102C7.52412 15.6513 7.47813 15.5883 7.44951 15.451C7.43372 15.3753 7.42295 15.2761 7.43197 15.1604C7.44113 15.0429 7.46908 14.9298 7.51171 14.8269L10.2834 15.9749C10.63 15.1381 10.281 14.4162 10.0743 14.0705C9.8687 13.7267 9.55299 13.3471 9.28181 13.0157L6.95994 14.9154ZM4.23467 11.5845L6.95994 14.9154L9.28181 13.0157L6.55654 9.68479L4.23467 11.5845ZM3.43168 9.75228C3.40496 10.2881 3.60268 10.7004 3.76643 10.963C3.90753 11.1893 4.10107 11.4212 4.23467 11.5845L6.55654 9.68479C6.47365 9.58347 6.41675 9.51379 6.37083 9.45479C6.32462 9.39541 6.31128 9.37435 6.31209 9.37565C6.3136 9.37808 6.34782 9.43229 6.37868 9.52654C6.41296 9.63125 6.43501 9.76036 6.42796 9.90171L3.43168 9.75228ZM4.413 8.00904C4.26381 8.15823 4.04815 8.36976 3.88524 8.58088C3.69617 8.82589 3.45841 9.21643 3.43168 9.75227L6.42796 9.90172C6.42091 10.0431 6.38613 10.1693 6.34159 10.2701C6.3015 10.3608 6.26207 10.4114 6.26032 10.4136C6.25938 10.4149 6.27475 10.3952 6.32664 10.3407C6.3782 10.2866 6.44175 10.2229 6.53432 10.1304L4.413 8.00904ZM8.00986 4.41218L4.413 8.00904L6.53432 10.1304L10.1312 6.5335L8.00986 4.41218ZM9.75309 3.43086C9.21725 3.45759 8.82671 3.69536 8.58169 3.88443C8.37058 4.04734 8.15905 4.26299 8.00986 4.41218L10.1312 6.5335C10.2237 6.44094 10.2874 6.37739 10.3416 6.32583C10.396 6.27393 10.4157 6.25857 10.4145 6.2595C10.4122 6.26125 10.3617 6.30069 10.2709 6.34077C10.1702 6.38531 10.0439 6.42009 9.90253 6.42714L9.75309 3.43086ZM11.5853 4.23385C11.422 4.10025 11.1901 3.90671 10.9638 3.76562C10.7012 3.60187 10.2889 3.40414 9.75309 3.43086L9.90253 6.42714C9.76118 6.43419 9.63207 6.41215 9.52735 6.37786C9.43311 6.347 9.3789 6.31279 9.37647 6.31127C9.37517 6.31046 9.39623 6.3238 9.45561 6.37001C9.5146 6.41593 9.58429 6.47283 9.68561 6.55572L11.5853 4.23385ZM14.9155 6.95857L11.5853 4.23385L9.68561 6.55572L13.0158 9.28044L14.9155 6.95857ZM14.827 7.51034C14.9299 7.46771 15.0431 7.43976 15.1606 7.4306C15.2762 7.42158 15.3754 7.43235 15.4511 7.44814C15.5884 7.47677 15.6514 7.52275 15.6103 7.49817C15.5744 7.47668 15.5039 7.42892 15.3764 7.3301C15.2512 7.23304 15.1056 7.11409 14.9155 6.95857L13.0158 9.28044C13.3473 9.55162 13.7268 9.86733 14.0706 10.0729C14.4164 10.2797 15.1382 10.6286 15.9751 10.282L14.827 7.51034ZM14.3742 7.18278C14.3498 7.42715 14.331 7.61419 14.3111 7.77137C14.2908 7.93141 14.2747 8.01502 14.2645 8.05562C14.2528 8.10208 14.2649 8.02499 14.3417 7.90769C14.3841 7.84297 14.4466 7.76522 14.5348 7.68982C14.6243 7.61321 14.7241 7.55298 14.827 7.51034L15.9751 10.282C16.8119 9.93537 17.0756 9.17817 17.1738 8.78754C17.2716 8.39904 17.3167 7.9074 17.3594 7.48129L14.3742 7.18278ZM14.8023 2.90213L14.3742 7.18278L17.3594 7.48129L17.7874 3.20065L14.8023 2.90213ZM15.5301 1.03876C15.1323 1.39876 14.9806 1.83008 14.9107 2.13157C14.8505 2.39134 14.8233 2.6922 14.8023 2.90213L17.7874 3.20065C17.8004 3.07039 17.8095 2.98088 17.8187 2.9067C17.828 2.83203 17.8335 2.80771 17.8332 2.8092C17.8325 2.81199 17.8184 2.87451 17.7735 2.96297C17.7238 3.06126 17.648 3.16815 17.5431 3.26311L15.5301 1.03876ZM17.4566 0.5C17.2457 0.5 16.9436 0.497086 16.6791 0.531172C16.3722 0.570731 15.9279 0.678759 15.5301 1.03876L17.5431 3.26312C17.4382 3.35808 17.3243 3.42278 17.2215 3.46255C17.129 3.49835 17.0654 3.5062 17.0626 3.50656C17.0611 3.50676 17.0858 3.50375 17.161 3.50191C17.2358 3.50009 17.3257 3.5 17.4566 3.5V0.5ZM22.5434 0.5H17.4566V3.5H22.5434V0.5ZM24.4699 1.03875C24.0721 0.678759 23.6278 0.570731 23.3209 0.531172C23.0564 0.497086 22.7543 0.5 22.5434 0.5V3.5C22.6743 3.5 22.7642 3.50009 22.839 3.50191C22.9142 3.50375 22.9389 3.50676 22.9374 3.50656C22.9346 3.5062 22.871 3.49835 22.7785 3.46255C22.6757 3.42278 22.5618 3.35808 22.4569 3.26312L24.4699 1.03875ZM25.7 20C25.7 23.148 23.148 25.7 20 25.7V28.7C24.8049 28.7 28.7 24.8049 28.7 20H25.7ZM20 14.3C23.148 14.3 25.7 16.852 25.7 20H28.7C28.7 15.1951 24.8049 11.3 20 11.3V14.3ZM14.3 20C14.3 16.852 16.852 14.3 20 14.3V11.3C15.1951 11.3 11.3 15.1951 11.3 20H14.3ZM20 25.7C16.852 25.7 14.3 23.148 14.3 20H11.3C11.3 24.8049 15.1951 28.7 20 28.7V25.7Z" fill="#EBE9FF"/>
</svg>
