<svg width="29" height="36" viewBox="0 0 29 36" fill="none" xmlns="http://www.w3.org/2000/svg">
<path d="M28.635 28.9434C24.3122 20.4848 20.0874 15.7479 20.0652 11.25V4.5C20.0652 4.5 20.9126 4.50211 21.1775 4.5C24.0466 4.47539 24.2698 0.114609 21.1775 0H7.82956C4.78247 0.173672 4.93542 4.38398 7.82956 4.5H8.94189V11.25C8.98221 15.7549 4.29653 21.1057 0.372094 28.9434C-0.561566 30.8088 -0.05059 35.6773 5.57779 36H23.4293C28.3743 35.8158 29.7549 31.1351 28.635 28.9434ZM23.1866 31.5H5.76689C5.14398 31.5 4.33615 30.7948 4.83253 29.7225L6.71375 25.8757C12.338 25.8757 14.4118 21.3694 18.98 21.3722C18.98 21.3722 23.8387 29.352 24.0091 29.5875C24.7356 30.5937 24.0327 31.5 23.1866 31.5Z" fill="#EBE9FF"/>
</svg>
