<svg width="172" height="232" viewBox="0 0 172 232" fill="none" xmlns="http://www.w3.org/2000/svg">
<path fill-rule="evenodd" clip-rule="evenodd" d="M40.4624 56.5136C14.5756 80.445 3.04989 91.0997 0.540288 103.577C-1.47228 113.581 2.30371 124.762 9.10741 144.906L9.4805 146.012C30.0455 206.917 88.9518 123.584 88.9518 123.584C88.9518 123.584 75.1492 104.801 56.3965 118.678C101.57 71.6494 113.421 56.5107 114.606 35.6248C115.791 14.7388 99.5715 0 99.5715 0C74.5644 24.9878 55.1895 42.8989 40.4629 56.5132L40.4624 56.5136ZM131.536 175.487C157.423 151.555 168.949 140.901 171.46 128.423C173.472 118.419 169.695 107.239 162.89 87.0947V87.0943L162.518 85.9888C141.953 25.0829 83.0468 108.416 83.0468 108.416C83.0468 108.416 96.8498 127.199 115.602 113.322C70.4293 160.351 58.5781 175.49 57.3927 196.374C56.2076 217.261 72.4271 232 72.4271 232C97.4346 207.011 116.809 189.101 131.536 175.487Z" fill="#EBE9FF"/>
</svg>
