<svg width="36" height="36" viewBox="0 0 36 36" fill="none" xmlns="http://www.w3.org/2000/svg">
<path d="M0 3.78947C0 1.69661 1.61177 0 3.6 0H32.4C34.3882 0 36 1.69661 36 3.78947V24.6316C36 26.7244 34.3882 28.4211 32.4 28.4211H19.8V32.2105H25.2C26.1941 32.2105 27 33.0588 27 34.1053C27 35.1517 26.1941 36 25.2 36H10.8C9.80589 36 9 35.1517 9 34.1053C9 33.0588 9.80589 32.2105 10.8 32.2105H16.2V28.4211H3.6C1.61178 28.4211 0 26.7244 0 24.6316V3.78947ZM32.4 24.6316V3.78947H3.6V24.6316H32.4Z" fill="#EBE9FF"/>
</svg>
