<svg width="34" height="44" viewBox="0 0 34 44" fill="none" xmlns="http://www.w3.org/2000/svg">
<path fill-rule="evenodd" clip-rule="evenodd" d="M9.71429 2.31579H7.28571V4.63158H4.85714V6.94737H2.42857V11.5789H4.85714V13.8947H2.42857V16.2105H0V18.5263H2.42857V20.8421H0V23.1579H2.42857V25.4737H4.85714V44H17V39.3684H26.7143V37.0526H29.1429V34.7368H31.5714V11.5789H34V6.94737H31.5714V4.63158H29.1429V2.31579H26.7143V0H9.71429V2.31579Z" fill="#EBE9FF"/>
<path d="M10.88 14.4375H14.28V17.875H10.88V14.4375Z" fill="#7146DF"/>
<path d="M21.08 14.4375H24.48V17.875H21.08V14.4375Z" fill="#7146DF"/>
<path d="M14.28 29.5625H21.76V31.625H14.28V29.5625Z" fill="#7146DF"/>
</svg>
