<svg width="40" height="40" viewBox="0 0 40 40" fill="none" xmlns="http://www.w3.org/2000/svg">
<path d="M16 16C16 17.1046 15.1046 18 14 18C12.8954 18 12 17.1046 12 16C12 14.8954 12.8954 14 14 14C15.1046 14 16 14.8954 16 16Z" fill="white"/>
<path d="M28 16C28 17.1046 27.1046 18 26 18C24.8954 18 24 17.1046 24 16C24 14.8954 24.8954 14 26 14C27.1046 14 28 14.8954 28 16Z" fill="white"/>
<path d="M13.3991 25.622C12.7729 25.0797 11.8256 25.1477 11.2832 25.774C10.7409 26.4002 10.8089 27.3475 11.4352 27.8898L13.3991 25.622ZM15.7227 28.4249L16.1387 26.9837L15.7227 28.4249ZM24.2773 28.4249L24.6934 29.866L24.2773 28.4249ZM28.5648 27.8898C29.1911 27.3475 29.2591 26.4002 28.7168 25.774C28.1744 25.1477 27.2271 25.0797 26.6009 25.622L28.5648 27.8898ZM36.5 20C36.5 29.1127 29.1127 36.5 20 36.5V39.5C30.7696 39.5 39.5 30.7696 39.5 20H36.5ZM20 36.5C10.8873 36.5 3.5 29.1127 3.5 20H0.5C0.5 30.7696 9.23045 39.5 20 39.5V36.5ZM3.5 20C3.5 10.8873 10.8873 3.5 20 3.5V0.5C9.23045 0.5 0.5 9.23045 0.5 20H3.5ZM20 3.5C29.1127 3.5 36.5 10.8873 36.5 20H39.5C39.5 9.23045 30.7696 0.5 20 0.5V3.5ZM11.4352 27.8898C12.4913 28.8045 13.8618 29.4489 15.3066 29.866L16.1387 26.9837C14.9682 26.6458 14.0304 26.1688 13.3991 25.622L11.4352 27.8898ZM15.3066 29.866C16.7713 30.2888 18.3865 30.5 20 30.5V27.5C18.6375 27.5 17.3051 27.3204 16.1387 26.9837L15.3066 29.866ZM20 30.5C21.6135 30.5 23.2287 30.2888 24.6934 29.866L23.8613 26.9837C22.6949 27.3204 21.3625 27.5 20 27.5V30.5ZM24.6934 29.866C26.1382 29.4489 27.5087 28.8045 28.5648 27.8898L26.6009 25.622C25.9696 26.1688 25.0318 26.6458 23.8613 26.9837L24.6934 29.866ZM14.5 16C14.5 16.2761 14.2761 16.5 14 16.5V19.5C15.933 19.5 17.5 17.933 17.5 16H14.5ZM14 16.5C13.7239 16.5 13.5 16.2761 13.5 16H10.5C10.5 17.933 12.067 19.5 14 19.5V16.5ZM13.5 16C13.5 15.7239 13.7239 15.5 14 15.5V12.5C12.067 12.5 10.5 14.067 10.5 16H13.5ZM14 15.5C14.2761 15.5 14.5 15.7239 14.5 16H17.5C17.5 14.067 15.933 12.5 14 12.5V15.5ZM26.5 16C26.5 16.2761 26.2761 16.5 26 16.5V19.5C27.933 19.5 29.5 17.933 29.5 16H26.5ZM26 16.5C25.7239 16.5 25.5 16.2761 25.5 16H22.5C22.5 17.933 24.067 19.5 26 19.5V16.5ZM25.5 16C25.5 15.7239 25.7239 15.5 26 15.5V12.5C24.067 12.5 22.5 14.067 22.5 16H25.5ZM26 15.5C26.2761 15.5 26.5 15.7239 26.5 16H29.5C29.5 14.067 27.933 12.5 26 12.5V15.5Z" fill="white"/>
</svg>
