<svg width="30" height="23" viewBox="0 0 30 23" fill="none" xmlns="http://www.w3.org/2000/svg">
<path d="M9.43682 22.0303C6.0911 22.0332 2.81513 21.1676 0 19.537C0.487638 19.588 0.978168 19.6133 1.46908 19.6126C4.24095 19.6166 6.93382 18.78 9.11491 17.2372C7.83012 17.2151 6.5851 16.8315 5.5539 16.14C4.5227 15.4485 3.75687 14.4836 3.36346 13.3803C3.74469 13.4468 4.13209 13.4804 4.52039 13.4806C5.06866 13.4807 5.61451 13.415 6.14359 13.2853C4.75005 13.0315 3.49678 12.3506 2.5964 11.3584C1.69602 10.3661 1.20398 9.12344 1.20375 7.84124C1.20375 7.81661 1.20375 7.79374 1.20375 7.77086C2.05825 8.19985 3.01419 8.43817 3.99168 8.46589C2.6882 7.68058 1.76577 6.47659 1.41234 5.09924C1.0589 3.72188 1.30107 2.27482 2.08948 1.05289C3.63394 2.76829 5.56103 4.17168 7.7457 5.172C9.93037 6.17232 12.3238 6.74722 14.7708 6.85941C14.4592 5.66724 14.5933 4.41563 15.1522 3.2993C15.7111 2.18298 16.6633 1.26454 17.8609 0.686877C19.0584 0.109213 20.4341 -0.0952847 21.7739 0.1052C23.1136 0.305684 24.3424 0.899909 25.2689 1.79542C26.6448 1.54873 27.9642 1.09297 29.1708 0.447608C28.7111 1.73343 27.7496 2.82508 26.4648 3.51979C27.6852 3.38676 28.8767 3.09024 30 2.64001C29.1731 3.7553 28.1326 4.72887 26.9272 5.51512C26.9409 5.75266 26.9467 5.99196 26.9467 6.23301C26.9467 13.5686 20.7524 22.0303 9.42902 22.0303" fill="#EBE9FF"/>
</svg>
